<svg version="1.1" viewBox="0.0 0.0 485.45931758530185 449.59317585301835" fill="none" stroke="none" stroke-linecap="square" stroke-miterlimit="10" xmlns:xlink="http://www.w3.org/1999/xlink" xmlns="http://www.w3.org/2000/svg"><clipPath id="p.0"><path d="m0 0l485.45932 0l0 449.59317l-485.45932 0l0 -449.59317z" clip-rule="nonzero"/></clipPath><g clip-path="url(#p.0)"><path fill="#000000" fill-opacity="0.0" d="m0 0l485.45932 0l0 449.59317l-485.45932 0z" fill-rule="evenodd"/><path fill="#4a9638" d="m160.1693 67.661026l158.73729 0l0 67.30762l-158.73729 0z" fill-rule="evenodd"/><path fill="#f3f3f3" d="m154.56204 64.67004l158.7373 0l0 67.30761l-158.7373 0z" fill-rule="evenodd"/><path stroke="#9fc939" stroke-width="1.0" stroke-linejoin="round" stroke-linecap="butt" d="m154.56204 64.67004l158.7373 0l0 67.30761l-158.7373 0z" fill-rule="evenodd"/><path fill="#79b238" d="m184.97462 105.40009q-1.40625 0 -2.6875 -0.421875q-1.28125 -0.421875 -2.046875 -1.140625q-0.265625 -0.25 -0.265625 -0.640625q0 -0.265625 0.140625 -0.453125q0.15625 -0.203125 0.359375 -0.203125q0.234375 0 0.515625 0.203125q1.734375 1.34375 3.953125 1.34375q1.609375 0 2.46875 -0.609375q0.859375 -0.625 0.859375 -1.765625q0 -0.640625 -0.421875 -1.046875q-0.40625 -0.40625 -1.078125 -0.640625q-0.671875 -0.25 -1.796875 -0.515625q-1.53125 -0.34375 -2.515625 -0.734375q-0.984375 -0.390625 -1.59375 -1.125q-0.59375 -0.734375 -0.59375 -1.90625q0 -1.109375 0.59375 -1.96875q0.609375 -0.875 1.703125 -1.34375q1.09375 -0.484375 2.484375 -0.484375q1.3125 0 2.4375 0.40625q1.140625 0.390625 1.90625 1.140625q0.296875 0.296875 0.296875 0.65625q0 0.25 -0.15625 0.453125q-0.140625 0.1875 -0.359375 0.1875q-0.203125 0 -0.53125 -0.203125q-0.921875 -0.75 -1.703125 -1.046875q-0.78125 -0.296875 -1.890625 -0.296875q-1.546875 0 -2.40625 0.65625q-0.84375 0.640625 -0.84375 1.796875q0 0.984375 0.75 1.484375q0.75 0.484375 2.328125 0.859375q1.6875 0.40625 2.65625 0.765625q0.96875 0.34375 1.609375 1.03125q0.65625 0.6875 0.65625 1.84375q0 1.09375 -0.609375 1.9375q-0.609375 0.84375 -1.71875 1.3125q-1.09375 0.46875 -2.5 0.46875zm13.5239105 -8.96875q0.203125 -0.4375 0.640625 -0.4375q0.28125 0 0.5 0.1875q0.234375 0.1875 0.234375 0.46875q0 0.15625 -0.078125 0.296875l-5.234375 11.296875q-0.09375 0.203125 -0.28125 0.3125q-0.171875 0.125 -0.359375 0.125q-0.28125 0 -0.5 -0.1875q-0.203125 -0.171875 -0.203125 -0.453125q0 -0.140625 0.078125 -0.296875l1.296875 -2.8125l-3.6875 -7.984375q-0.078125 -0.140625 -0.078125 -0.28125q0 -0.28125 0.25 -0.484375q0.25 -0.203125 0.546875 -0.203125q0.1875 0 0.359375 0.109375q0.1875 0.109375 0.28125 0.3125l3.109375 7.0l3.125 -6.96875zm7.6049347 -0.5q3.265625 0 3.265625 3.609375l0 5.046875q0 0.359375 -0.203125 0.5625q-0.1875 0.1875 -0.546875 0.1875q-0.34375 0 -0.5625 -0.1875q-0.203125 -0.203125 -0.203125 -0.5625l0 -4.953125q0 -1.28125 -0.5 -1.859375q-0.484375 -0.578125 -1.5625 -0.578125q-1.25 0 -2.0 0.765625q-0.75 0.765625 -0.75 2.078125l0 4.546875q0 0.359375 -0.203125 0.5625q-0.1875 0.1875 -0.53125 0.1875q-0.359375 0 -0.5625 -0.1875q-0.203125 -0.203125 -0.203125 -0.5625l0 -7.875q0 -0.328125 0.203125 -0.53125q0.203125 -0.203125 0.5625 -0.203125q0.328125 0 0.515625 0.203125q0.203125 0.203125 0.203125 0.515625l0 0.953125q0.453125 -0.84375 1.25 -1.28125q0.796875 -0.4375 1.828125 -0.4375zm9.081131 9.4375q-0.859375 0 -1.640625 -0.203125q-0.765625 -0.203125 -1.359375 -0.578125q-0.328125 -0.21875 -0.46875 -0.40625q-0.140625 -0.203125 -0.140625 -0.484375q0 -0.25 0.140625 -0.40625q0.140625 -0.15625 0.359375 -0.15625q0.21875 0 0.65625 0.28125q0.5625 0.328125 1.109375 0.53125q0.546875 0.203125 1.375 0.203125q1.0 0 1.5625 -0.359375q0.5625 -0.359375 0.5625 -1.03125q0 -0.40625 -0.21875 -0.65625q-0.203125 -0.25 -0.703125 -0.4375q-0.5 -0.203125 -1.46875 -0.421875q-1.640625 -0.34375 -2.359375 -0.9375q-0.703125 -0.609375 -0.703125 -1.625q0 -0.8125 0.4375 -1.421875q0.453125 -0.609375 1.25 -0.96875q0.796875 -0.359375 1.796875 -0.359375q0.734375 0 1.40625 0.203125q0.6875 0.1875 1.203125 0.546875q0.640625 0.453125 0.640625 0.9375q0 0.234375 -0.15625 0.40625q-0.140625 0.171875 -0.34375 0.171875q-0.234375 0 -0.671875 -0.328125q-0.53125 -0.328125 -1.0 -0.515625q-0.453125 -0.1875 -1.140625 -0.1875q-0.890625 0 -1.421875 0.390625q-0.53125 0.390625 -0.53125 1.046875q0 0.40625 0.1875 0.65625q0.203125 0.25 0.65625 0.453125q0.46875 0.203125 1.328125 0.375q1.265625 0.28125 1.96875 0.625q0.703125 0.328125 1.0 0.8125q0.296875 0.484375 0.296875 1.234375q0 1.171875 -1.0 1.890625q-0.984375 0.71875 -2.609375 0.71875zm12.939377 -2.234375q0.203125 0 0.34375 0.171875q0.15625 0.171875 0.15625 0.421875q0 0.46875 -0.65625 0.859375q-0.671875 0.390625 -1.421875 0.59375q-0.734375 0.1875 -1.453125 0.1875q-2.109375 0 -3.328125 -1.25q-1.21875 -1.25 -1.21875 -3.453125q0 -1.390625 0.53125 -2.453125q0.546875 -1.078125 1.53125 -1.671875q0.984375 -0.609375 2.234375 -0.609375q1.765625 0 2.8125 1.15625q1.046875 1.15625 1.046875 3.140625q0 0.375 -0.15625 0.546875q-0.140625 0.15625 -0.484375 0.15625l-6.0 0q0.15625 3.21875 3.03125 3.21875q0.734375 0 1.25 -0.203125q0.53125 -0.203125 1.125 -0.53125q0.484375 -0.28125 0.65625 -0.28125zm-3.265625 -6.03125q-1.203125 0 -1.921875 0.75q-0.71875 0.75 -0.84375 2.109375l5.28125 0q-0.03125 -1.375 -0.6875 -2.109375q-0.65625 -0.75 -1.828125 -0.75zm15.301407 8.296875q-1.40625 0 -2.6875 -0.421875q-1.28125 -0.421875 -2.046875 -1.140625q-0.265625 -0.25 -0.265625 -0.640625q0 -0.265625 0.140625 -0.453125q0.15625 -0.203125 0.359375 -0.203125q0.234375 0 0.515625 0.203125q1.734375 1.34375 3.953125 1.34375q1.609375 0 2.46875 -0.609375q0.859375 -0.625 0.859375 -1.765625q0 -0.640625 -0.421875 -1.046875q-0.40625 -0.40625 -1.078125 -0.640625q-0.671875 -0.25 -1.796875 -0.515625q-1.53125 -0.34375 -2.515625 -0.734375q-0.984375 -0.390625 -1.59375 -1.125q-0.59375 -0.734375 -0.59375 -1.90625q0 -1.109375 0.59375 -1.96875q0.609375 -0.875 1.703125 -1.34375q1.09375 -0.484375 2.484375 -0.484375q1.3125 0 2.4375 0.40625q1.140625 0.390625 1.90625 1.140625q0.296875 0.296875 0.296875 0.65625q0 0.25 -0.15625 0.453125q-0.140625 0.1875 -0.359375 0.1875q-0.203125 0 -0.53125 -0.203125q-0.921875 -0.75 -1.703125 -1.046875q-0.78125 -0.296875 -1.890625 -0.296875q-1.546875 0 -2.40625 0.65625q-0.84375 0.640625 -0.84375 1.796875q0 0.984375 0.75 1.484375q0.75 0.484375 2.328125 0.859375q1.6875 0.40625 2.65625 0.765625q0.96875 0.34375 1.609375 1.03125q0.65625 0.6875 0.65625 1.84375q0 1.09375 -0.609375 1.9375q-0.609375 0.84375 -1.71875 1.3125q-1.09375 0.46875 -2.5 0.46875zm14.120285 -2.265625q0.203125 0 0.34375 0.171875q0.15625 0.171875 0.15625 0.421875q0 0.46875 -0.65625 0.859375q-0.671875 0.390625 -1.421875 0.59375q-0.734375 0.1875 -1.453125 0.1875q-2.109375 0 -3.328125 -1.25q-1.21875 -1.25 -1.21875 -3.453125q0 -1.390625 0.53125 -2.453125q0.546875 -1.078125 1.53125 -1.671875q0.984375 -0.609375 2.234375 -0.609375q1.765625 0 2.8125 1.15625q1.046875 1.15625 1.046875 3.140625q0 0.375 -0.15625 0.546875q-0.140625 0.15625 -0.484375 0.15625l-6.0 0q0.15625 3.21875 3.03125 3.21875q0.734375 0 1.25 -0.203125q0.53125 -0.203125 1.125 -0.53125q0.484375 -0.28125 0.65625 -0.28125zm-3.265625 -6.03125q-1.203125 0 -1.921875 0.75q-0.71875 0.75 -0.84375 2.109375l5.28125 0q-0.03125 -1.375 -0.6875 -2.109375q-0.65625 -0.75 -1.828125 -0.75zm10.550613 -1.125q0.78125 -0.0625 0.78125 0.625q0 0.296875 -0.171875 0.484375q-0.15625 0.171875 -0.5625 0.203125l-0.5625 0.0625q-1.25 0.109375 -1.859375 0.890625q-0.609375 0.765625 -0.609375 1.8125l0 4.53125q0 0.375 -0.203125 0.5625q-0.203125 0.1875 -0.53125 0.1875q-0.34375 0 -0.5625 -0.1875q-0.203125 -0.203125 -0.203125 -0.5625l0 -7.875q0 -0.34375 0.21875 -0.53125q0.21875 -0.203125 0.546875 -0.203125q0.296875 0 0.5 0.203125q0.203125 0.1875 0.203125 0.515625l0 1.046875q0.390625 -0.828125 1.109375 -1.25q0.71875 -0.421875 1.65625 -0.5l0.25 -0.015625zm9.20816 0.453125q0.203125 -0.4375 0.640625 -0.4375q0.28125 0 0.5 0.1875q0.234375 0.1875 0.234375 0.46875q0 0.15625 -0.078125 0.296875l-3.640625 7.828125q-0.109375 0.25 -0.328125 0.390625q-0.21875 0.140625 -0.484375 0.140625q-0.25 0 -0.46875 -0.140625q-0.21875 -0.140625 -0.359375 -0.390625l-3.609375 -7.828125q-0.078125 -0.140625 -0.078125 -0.28125q0 -0.28125 0.25 -0.484375q0.25 -0.203125 0.546875 -0.203125q0.1875 0 0.359375 0.109375q0.1875 0.109375 0.28125 0.3125l3.109375 7.0l3.125 -6.96875zm9.96167 6.703125q0.203125 0 0.34375 0.171875q0.15625 0.171875 0.15625 0.421875q0 0.46875 -0.65625 0.859375q-0.671875 0.390625 -1.421875 0.59375q-0.734375 0.1875 -1.453125 0.1875q-2.109375 0 -3.328125 -1.25q-1.21875 -1.25 -1.21875 -3.453125q0 -1.390625 0.53125 -2.453125q0.546875 -1.078125 1.53125 -1.671875q0.984375 -0.609375 2.234375 -0.609375q1.765625 0 2.8125 1.15625q1.046875 1.15625 1.046875 3.140625q0 0.375 -0.15625 0.546875q-0.140625 0.15625 -0.484375 0.15625l-6.0 0q0.15625 3.21875 3.03125 3.21875q0.734375 0 1.25 -0.203125q0.53125 -0.203125 1.125 -0.53125q0.484375 -0.28125 0.65625 -0.28125zm-3.265625 -6.03125q-1.203125 0 -1.921875 0.75q-0.71875 0.75 -0.84375 2.109375l5.28125 0q-0.03125 -1.375 -0.6875 -2.109375q-0.65625 -0.75 -1.828125 -0.75zm10.550598 -1.125q0.78125 -0.0625 0.78125 0.625q0 0.296875 -0.171875 0.484375q-0.15625 0.171875 -0.5625 0.203125l-0.5625 0.0625q-1.25 0.109375 -1.859375 0.890625q-0.609375 0.765625 -0.609375 1.8125l0 4.53125q0 0.375 -0.203125 0.5625q-0.203125 0.1875 -0.53125 0.1875q-0.34375 0 -0.5625 -0.1875q-0.203125 -0.203125 -0.203125 -0.5625l0 -7.875q0 -0.34375 0.21875 -0.53125q0.21875 -0.203125 0.546875 -0.203125q0.296875 0 0.5 0.203125q0.203125 0.1875 0.203125 0.515625l0 1.046875q0.390625 -0.828125 1.109375 -1.25q0.71875 -0.421875 1.65625 -0.5l0.25 -0.015625z" fill-rule="nonzero"/><path fill="#4a9638" d="m38.545357 224.31427l109.92126 0l0 60.475433l-109.92126 0z" fill-rule="evenodd"/><path fill="#f3f3f3" d="m34.662487 221.62689l109.92125 0l0 60.475433l-109.92125 0z" fill-rule="evenodd"/><path stroke="#9fc939" stroke-width="1.0" stroke-linejoin="round" stroke-linecap="butt" d="m34.662487 221.62689l109.92125 0l0 60.475433l-109.92125 0z" fill-rule="evenodd"/><path fill="#79b238" d="m65.67111 258.87836q-0.359375 0 -0.5625 -0.203125q-0.203125 -0.21875 -0.203125 -0.578125l0 -11.71875q0 -0.34375 0.203125 -0.546875q0.21875 -0.203125 0.578125 -0.203125l4.421875 0q2.078125 0 3.21875 1.015625q1.140625 1.0 1.140625 2.84375q0 1.859375 -1.15625 2.890625q-1.15625 1.015625 -3.203125 1.015625l-3.671875 0l0 4.703125q0 0.359375 -0.203125 0.578125q-0.203125 0.203125 -0.5625 0.203125zm4.28125 -6.75q3.015625 0 3.015625 -2.640625q0 -2.59375 -3.015625 -2.59375l-3.515625 0l0 5.234375l3.515625 0zm7.5332794 6.75q-0.34375 0 -0.5625 -0.1875q-0.203125 -0.203125 -0.203125 -0.5625l0 -11.84375q0 -0.359375 0.203125 -0.546875q0.21875 -0.203125 0.5625 -0.203125q0.3125 0 0.515625 0.203125q0.21875 0.1875 0.21875 0.546875l0 11.84375q0 0.359375 -0.21875 0.5625q-0.203125 0.1875 -0.515625 0.1875zm10.453247 -9.359375q0.359375 0 0.546875 0.203125q0.203125 0.203125 0.203125 0.53125l0 7.890625q0 0.328125 -0.203125 0.53125q-0.1875 0.203125 -0.546875 0.203125q-0.328125 0 -0.53125 -0.1875q-0.1875 -0.203125 -0.1875 -0.515625l0 -0.9375q-0.4375 0.8125 -1.21875 1.25q-0.765625 0.421875 -1.734375 0.421875q-1.625 0 -2.453125 -0.890625q-0.8125 -0.90625 -0.8125 -2.6875l0 -5.078125q0 -0.328125 0.203125 -0.53125q0.203125 -0.203125 0.5625 -0.203125q0.359375 0 0.546875 0.203125q0.203125 0.203125 0.203125 0.53125l0 5.046875q0 1.203125 0.484375 1.78125q0.484375 0.5625 1.53125 0.5625q1.1875 0 1.90625 -0.765625q0.734375 -0.78125 0.734375 -2.046875l0 -4.578125q0 -0.328125 0.203125 -0.53125q0.21875 -0.203125 0.5625 -0.203125zm10.934906 0q0.359375 0 0.5625 0.203125q0.203125 0.203125 0.203125 0.53125l0 7.921875q0 2.03125 -1.046875 3.0625q-1.046875 1.03125 -3.09375 1.03125q-2.0 0 -3.3125 -0.78125q-0.671875 -0.375 -0.671875 -0.859375q0 -0.265625 0.125 -0.4375q0.140625 -0.15625 0.375 -0.15625q0.1875 0 0.671875 0.265625q0.65625 0.328125 1.28125 0.53125q0.640625 0.203125 1.515625 0.203125q1.328125 0 2.0 -0.703125q0.671875 -0.6875 0.671875 -2.03125l0 -1.609375q-0.390625 0.875 -1.203125 1.34375q-0.8125 0.46875 -1.921875 0.46875q-1.1875 0 -2.109375 -0.5625q-0.921875 -0.5625 -1.4375 -1.578125q-0.515625 -1.03125 -0.515625 -2.375q0 -1.34375 0.515625 -2.359375q0.515625 -1.03125 1.4375 -1.59375q0.921875 -0.5625 2.109375 -0.5625q1.078125 0 1.875 0.46875q0.8125 0.46875 1.21875 1.328125l0 -1.015625q0 -0.328125 0.1875 -0.53125q0.203125 -0.203125 0.5625 -0.203125zm-3.546875 7.734375q1.3125 0 2.046875 -0.859375q0.75 -0.875 0.75 -2.40625q0 -1.515625 -0.734375 -2.375q-0.734375 -0.875 -2.0625 -0.875q-1.3125 0 -2.078125 0.875q-0.75 0.859375 -0.75 2.375q0 1.53125 0.75 2.40625q0.765625 0.859375 2.078125 0.859375zm7.8856964 1.625q-0.34375 0 -0.5625 -0.1875q-0.203125 -0.203125 -0.203125 -0.5625l0 -7.875q0 -0.34375 0.203125 -0.53125q0.21875 -0.203125 0.5625 -0.203125q0.328125 0 0.53125 0.203125q0.203125 0.1875 0.203125 0.53125l0 7.875q0 0.375 -0.203125 0.5625q-0.203125 0.1875 -0.53125 0.1875zm0 -11.328125q-0.453125 0 -0.734375 -0.25q-0.28125 -0.265625 -0.28125 -0.703125q0 -0.40625 0.28125 -0.65625q0.28125 -0.265625 0.734375 -0.265625q0.453125 0 0.71875 0.265625q0.28125 0.25 0.28125 0.65625q0 0.4375 -0.28125 0.703125q-0.265625 0.25 -0.71875 0.25zm8.125122 1.921875q3.265625 0 3.265625 3.609375l0 5.046875q0 0.359375 -0.203125 0.5625q-0.1875 0.1875 -0.546875 0.1875q-0.34375 0 -0.5625 -0.1875q-0.203125 -0.203125 -0.203125 -0.5625l0 -4.953125q0 -1.28125 -0.5 -1.859375q-0.484375 -0.578125 -1.5625 -0.578125q-1.25 0 -2.0 0.765625q-0.75 0.765625 -0.75 2.078125l0 4.546875q0 0.359375 -0.203125 0.5625q-0.1875 0.1875 -0.53125 0.1875q-0.359375 0 -0.5625 -0.1875q-0.203125 -0.203125 -0.203125 -0.5625l0 -7.875q0 -0.328125 0.203125 -0.53125q0.203125 -0.203125 0.5625 -0.203125q0.328125 0 0.515625 0.203125q0.203125 0.203125 0.203125 0.515625l0 0.953125q0.453125 -0.84375 1.25 -1.28125q0.796875 -0.4375 1.828125 -0.4375z" fill-rule="nonzero"/><path fill="#000000" fill-opacity="0.0" d="m233.9307 131.97765c0 22.41214 -36.07875 33.619553 -72.157486 44.82428c-36.078743 11.204727 -72.15748 22.406754 -72.15748 44.813522" fill-rule="evenodd"/><path stroke="#666666" stroke-width="2.0" stroke-linejoin="round" stroke-linecap="butt" d="m232.75926 138.73099l-0.076187134 0.21318054c-0.11656189 0.3139801 -0.24098206 0.62553406 -0.37312317 0.9346924c-1.0569763 2.4732513 -2.6072388 4.7933044 -4.5802917 6.9820404c-3.946106 4.377472 -9.58342 8.229675 -16.348175 11.731674c-13.529526 7.003952 -31.568909 12.606979 -49.608276 18.20935c-18.039368 5.602356 -36.078735 11.204041 -49.60826 18.205994c-6.7647705 3.5009766 -12.402069 7.352005 -16.348183 11.728226c-1.973053 2.1881104 -3.5233154 4.507492 -4.580307 6.9801025c-0.13212585 0.30908203 -0.25654602 0.6205292 -0.37311554 0.93444824l-0.07561493 0.2115326" fill-rule="evenodd"/><path fill="#666666" stroke="#666666" stroke-width="2.0" stroke-linecap="butt" d="m232.75926 138.73097l1.8316803 2.6004791l-1.1599426 -6.4730225l-3.2722168 5.7042236z" fill-rule="evenodd"/><path fill="#666666" stroke="#666666" stroke-width="2.0" stroke-linecap="butt" d="m90.787735 214.86221l-1.831459 -2.6006317l1.1594009 6.473114l3.2726822 -5.7039337z" fill-rule="evenodd"/><path fill="#4a9638" d="m184.54274 224.31427l109.92125 0l0 60.475433l-109.92125 0z" fill-rule="evenodd"/><path fill="#f3f3f3" d="m180.65987 221.62689l109.92125 0l0 60.475433l-109.92125 0z" fill-rule="evenodd"/><path stroke="#9fc939" stroke-width="1.0" stroke-linejoin="round" stroke-linecap="butt" d="m180.65987 221.62689l109.92125 0l0 60.475433l-109.92125 0z" fill-rule="evenodd"/><path fill="#79b238" d="m211.66849 258.87836q-0.359375 0 -0.5625 -0.203125q-0.203125 -0.21875 -0.203125 -0.578125l0 -11.71875q0 -0.34375 0.203125 -0.546875q0.21875 -0.203125 0.578125 -0.203125l4.421875 0q2.078125 0 3.21875 1.015625q1.140625 1.0 1.140625 2.84375q0 1.859375 -1.15625 2.890625q-1.15625 1.015625 -3.203125 1.015625l-3.671875 0l0 4.703125q0 0.359375 -0.203125 0.578125q-0.203125 0.203125 -0.5625 0.203125zm4.28125 -6.75q3.015625 0 3.015625 -2.640625q0 -2.59375 -3.015625 -2.59375l-3.515625 0l0 5.234375l3.515625 0zm7.5332794 6.75q-0.34375 0 -0.5625 -0.1875q-0.203125 -0.203125 -0.203125 -0.5625l0 -11.84375q0 -0.359375 0.203125 -0.546875q0.21875 -0.203125 0.5625 -0.203125q0.3125 0 0.515625 0.203125q0.21875 0.1875 0.21875 0.546875l0 11.84375q0 0.359375 -0.21875 0.5625q-0.203125 0.1875 -0.515625 0.1875zm10.453247 -9.359375q0.359375 0 0.546875 0.203125q0.203125 0.203125 0.203125 0.53125l0 7.890625q0 0.328125 -0.203125 0.53125q-0.1875 0.203125 -0.546875 0.203125q-0.328125 0 -0.53125 -0.1875q-0.1875 -0.203125 -0.1875 -0.515625l0 -0.9375q-0.4375 0.8125 -1.21875 1.25q-0.765625 0.421875 -1.734375 0.421875q-1.625 0 -2.453125 -0.890625q-0.8125 -0.90625 -0.8125 -2.6875l0 -5.078125q0 -0.328125 0.203125 -0.53125q0.203125 -0.203125 0.5625 -0.203125q0.359375 0 0.546875 0.203125q0.203125 0.203125 0.203125 0.53125l0 5.046875q0 1.203125 0.484375 1.78125q0.484375 0.5625 1.53125 0.5625q1.1875 0 1.90625 -0.765625q0.734375 -0.78125 0.734375 -2.046875l0 -4.578125q0 -0.328125 0.203125 -0.53125q0.21875 -0.203125 0.5625 -0.203125zm10.934906 0q0.359375 0 0.5625 0.203125q0.203125 0.203125 0.203125 0.53125l0 7.921875q0 2.03125 -1.046875 3.0625q-1.046875 1.03125 -3.09375 1.03125q-2.0 0 -3.3125 -0.78125q-0.671875 -0.375 -0.671875 -0.859375q0 -0.265625 0.125 -0.4375q0.140625 -0.15625 0.375 -0.15625q0.1875 0 0.671875 0.265625q0.65625 0.328125 1.28125 0.53125q0.640625 0.203125 1.515625 0.203125q1.328125 0 2.0 -0.703125q0.671875 -0.6875 0.671875 -2.03125l0 -1.609375q-0.390625 0.875 -1.203125 1.34375q-0.8125 0.46875 -1.921875 0.46875q-1.1875 0 -2.109375 -0.5625q-0.921875 -0.5625 -1.4375 -1.578125q-0.515625 -1.03125 -0.515625 -2.375q0 -1.34375 0.515625 -2.359375q0.515625 -1.03125 1.4375 -1.59375q0.921875 -0.5625 2.109375 -0.5625q1.078125 0 1.875 0.46875q0.8125 0.46875 1.21875 1.328125l0 -1.015625q0 -0.328125 0.1875 -0.53125q0.203125 -0.203125 0.5625 -0.203125zm-3.546875 7.734375q1.3125 0 2.046875 -0.859375q0.75 -0.875 0.75 -2.40625q0 -1.515625 -0.734375 -2.375q-0.734375 -0.875 -2.0625 -0.875q-1.3125 0 -2.078125 0.875q-0.75 0.859375 -0.75 2.375q0 1.53125 0.75 2.40625q0.765625 0.859375 2.078125 0.859375zm7.8856964 1.625q-0.34375 0 -0.5625 -0.1875q-0.203125 -0.203125 -0.203125 -0.5625l0 -7.875q0 -0.34375 0.203125 -0.53125q0.21875 -0.203125 0.5625 -0.203125q0.328125 0 0.53125 0.203125q0.203125 0.1875 0.203125 0.53125l0 7.875q0 0.375 -0.203125 0.5625q-0.203125 0.1875 -0.53125 0.1875zm0 -11.328125q-0.453125 0 -0.734375 -0.25q-0.28125 -0.265625 -0.28125 -0.703125q0 -0.40625 0.28125 -0.65625q0.28125 -0.265625 0.734375 -0.265625q0.453125 0 0.71875 0.265625q0.28125 0.25 0.28125 0.65625q0 0.4375 -0.28125 0.703125q-0.265625 0.25 -0.71875 0.25zm8.125122 1.921875q3.265625 0 3.265625 3.609375l0 5.046875q0 0.359375 -0.203125 0.5625q-0.1875 0.1875 -0.546875 0.1875q-0.34375 0 -0.5625 -0.1875q-0.203125 -0.203125 -0.203125 -0.5625l0 -4.953125q0 -1.28125 -0.5 -1.859375q-0.484375 -0.578125 -1.5625 -0.578125q-1.25 0 -2.0 0.765625q-0.75 0.765625 -0.75 2.078125l0 4.546875q0 0.359375 -0.203125 0.5625q-0.1875 0.1875 -0.53125 0.1875q-0.359375 0 -0.5625 -0.1875q-0.203125 -0.203125 -0.203125 -0.5625l0 -7.875q0 -0.328125 0.203125 -0.53125q0.203125 -0.203125 0.5625 -0.203125q0.328125 0 0.515625 0.203125q0.203125 0.203125 0.203125 0.515625l0 0.953125q0.453125 -0.84375 1.25 -1.28125q0.796875 -0.4375 1.828125 -0.4375z" fill-rule="nonzero"/><path fill="#4a9638" d="m330.5401 224.31427l109.921265 0l0 60.475433l-109.921265 0z" fill-rule="evenodd"/><path fill="#f3f3f3" d="m326.65723 221.62689l109.921265 0l0 60.475433l-109.921265 0z" fill-rule="evenodd"/><path stroke="#9fc939" stroke-width="1.0" stroke-linejoin="round" stroke-linecap="butt" d="m326.65723 221.62689l109.921265 0l0 60.475433l-109.921265 0z" fill-rule="evenodd"/><path fill="#79b238" d="m357.66586 258.87836q-0.359375 0 -0.5625 -0.203125q-0.203125 -0.21875 -0.203125 -0.578125l0 -11.71875q0 -0.34375 0.203125 -0.546875q0.21875 -0.203125 0.578125 -0.203125l4.421875 0q2.078125 0 3.21875 1.015625q1.140625 1.0 1.140625 2.84375q0 1.859375 -1.15625 2.890625q-1.15625 1.015625 -3.203125 1.015625l-3.671875 0l0 4.703125q0 0.359375 -0.203125 0.578125q-0.203125 0.203125 -0.5625 0.203125zm4.28125 -6.75q3.015625 0 3.015625 -2.640625q0 -2.59375 -3.015625 -2.59375l-3.515625 0l0 5.234375l3.515625 0zm7.5332947 6.75q-0.34375 0 -0.5625 -0.1875q-0.203125 -0.203125 -0.203125 -0.5625l0 -11.84375q0 -0.359375 0.203125 -0.546875q0.21875 -0.203125 0.5625 -0.203125q0.3125 0 0.515625 0.203125q0.21875 0.1875 0.21875 0.546875l0 11.84375q0 0.359375 -0.21875 0.5625q-0.203125 0.1875 -0.515625 0.1875zm10.453247 -9.359375q0.359375 0 0.546875 0.203125q0.203125 0.203125 0.203125 0.53125l0 7.890625q0 0.328125 -0.203125 0.53125q-0.1875 0.203125 -0.546875 0.203125q-0.328125 0 -0.53125 -0.1875q-0.1875 -0.203125 -0.1875 -0.515625l0 -0.9375q-0.4375 0.8125 -1.21875 1.25q-0.765625 0.421875 -1.734375 0.421875q-1.625 0 -2.453125 -0.890625q-0.8125 -0.90625 -0.8125 -2.6875l0 -5.078125q0 -0.328125 0.203125 -0.53125q0.203125 -0.203125 0.5625 -0.203125q0.359375 0 0.546875 0.203125q0.203125 0.203125 0.203125 0.53125l0 5.046875q0 1.203125 0.484375 1.78125q0.484375 0.5625 1.53125 0.5625q1.1875 0 1.90625 -0.765625q0.734375 -0.78125 0.734375 -2.046875l0 -4.578125q0 -0.328125 0.203125 -0.53125q0.21875 -0.203125 0.5625 -0.203125zm10.9348755 0q0.359375 0 0.5625 0.203125q0.203125 0.203125 0.203125 0.53125l0 7.921875q0 2.03125 -1.0468445 3.0625q-1.046875 1.03125 -3.09375 1.03125q-2.0 0 -3.3125 -0.78125q-0.671875 -0.375 -0.671875 -0.859375q0 -0.265625 0.125 -0.4375q0.140625 -0.15625 0.375 -0.15625q0.1875 0 0.671875 0.265625q0.65625 0.328125 1.28125 0.53125q0.640625 0.203125 1.515625 0.203125q1.328125 0 2.0 -0.703125q0.671875 -0.6875 0.671875 -2.03125l0 -1.609375q-0.390625 0.875 -1.203125 1.34375q-0.8125 0.46875 -1.921875 0.46875q-1.1875 0 -2.109375 -0.5625q-0.921875 -0.5625 -1.4375 -1.578125q-0.515625 -1.03125 -0.515625 -2.375q0 -1.34375 0.515625 -2.359375q0.515625 -1.03125 1.4375 -1.59375q0.921875 -0.5625 2.109375 -0.5625q1.078125 0 1.875 0.46875q0.8125 0.46875 1.21875 1.328125l0 -1.015625q0 -0.328125 0.1875 -0.53125q0.203125 -0.203125 0.5624695 -0.203125zm-3.5468445 7.734375q1.3125 0 2.046875 -0.859375q0.75 -0.875 0.75 -2.40625q0 -1.515625 -0.734375 -2.375q-0.734375 -0.875 -2.0625 -0.875q-1.3125 0 -2.078125 0.875q-0.75 0.859375 -0.75 2.375q0 1.53125 0.75 2.40625q0.765625 0.859375 2.078125 0.859375zm7.885681 1.625q-0.34375 0 -0.5625 -0.1875q-0.203125 -0.203125 -0.203125 -0.5625l0 -7.875q0 -0.34375 0.203125 -0.53125q0.21875 -0.203125 0.5625 -0.203125q0.328125 0 0.53125 0.203125q0.203125 0.1875 0.203125 0.53125l0 7.875q0 0.375 -0.203125 0.5625q-0.203125 0.1875 -0.53125 0.1875zm0 -11.328125q-0.453125 0 -0.734375 -0.25q-0.28125 -0.265625 -0.28125 -0.703125q0 -0.40625 0.28125 -0.65625q0.28125 -0.265625 0.734375 -0.265625q0.453125 0 0.71875 0.265625q0.28125 0.25 0.28125 0.65625q0 0.4375 -0.28125 0.703125q-0.265625 0.25 -0.71875 0.25zm8.125122 1.921875q3.265625 0 3.265625 3.609375l0 5.046875q0 0.359375 -0.203125 0.5625q-0.1875 0.1875 -0.546875 0.1875q-0.34375 0 -0.5625 -0.1875q-0.203125 -0.203125 -0.203125 -0.5625l0 -4.953125q0 -1.28125 -0.5 -1.859375q-0.484375 -0.578125 -1.5625 -0.578125q-1.25 0 -2.0 0.765625q-0.75 0.765625 -0.75 2.078125l0 4.546875q0 0.359375 -0.203125 0.5625q-0.1875 0.1875 -0.53125 0.1875q-0.359375 0 -0.5625 -0.1875q-0.203125 -0.203125 -0.203125 -0.5625l0 -7.875q0 -0.328125 0.203125 -0.53125q0.203125 -0.203125 0.5625 -0.203125q0.328125 0 0.515625 0.203125q0.203125 0.203125 0.203125 0.515625l0 0.953125q0.453125 -0.84375 1.25 -1.28125q0.796875 -0.4375 1.828125 -0.4375z" fill-rule="nonzero"/><path fill="#000000" fill-opacity="0.0" d="m233.9307 131.97765c0 22.41214 36.921265 33.619553 73.8425 44.82428c36.921265 11.204727 73.84253 22.406754 73.84253 44.813522" fill-rule="evenodd"/><path stroke="#666666" stroke-width="2.0" stroke-linejoin="round" stroke-linecap="butt" d="m235.12782 138.72647l0.0796051 0.21769714c0.11930847 0.3139801 0.24661255 0.62553406 0.38183594 0.9346924c1.081665 2.4732513 2.6681366 4.7933044 4.687271 6.9820404c4.038269 4.377472 9.807205 8.229675 16.729935 11.731674c13.8454895 7.003952 32.30612 12.606979 50.766754 18.20935c18.460632 5.602356 36.921234 11.204041 50.766724 18.205994c6.9227295 3.5009766 12.691681 7.352005 16.72995 11.728226c2.0191345 2.1881104 3.6055908 4.507492 4.687256 6.9801025c0.13519287 0.30908203 0.26254272 0.6205292 0.38183594 0.93444824l0.07904053 0.21603394" fill-rule="evenodd"/><path fill="#666666" stroke="#666666" stroke-width="2.0" stroke-linecap="butt" d="m235.12782 138.72647l2.6074371 1.8217621l-3.2938995 -5.6917267l-1.1352997 6.4773865z" fill-rule="evenodd"/><path fill="#666666" stroke="#666666" stroke-width="2.0" stroke-linecap="butt" d="m380.418 214.86673l-2.6075745 -1.8215332l3.294403 5.6914215l1.1347351 -6.477478z" fill-rule="evenodd"/><path fill="#000000" fill-opacity="0.0" d="m233.9307 131.97765c0 22.41214 0.42518616 33.619553 0.8503876 44.82428c0.42520142 11.204727 0.8503876 22.406754 0.8503876 44.813522" fill-rule="evenodd"/><path stroke="#666666" stroke-width="2.0" stroke-linejoin="round" stroke-linecap="butt" d="m233.9459 138.8318l0.0038909912 1.0470581c0.012451172 2.4732513 0.030715942 4.7933044 0.053970337 6.9820404c0.04650879 4.377472 0.11294556 8.229675 0.19267273 11.731674c0.15945435 7.003952 0.3720398 12.606979 0.5846405 18.20935c0.21260071 5.602356 0.42520142 11.204041 0.58465576 18.205994c0.079711914 3.5009766 0.14614868 7.352005 0.19265747 11.728226c0.023254395 2.1881104 0.041519165 4.507492 0.053970337 6.9801025l0.00390625 1.045044" fill-rule="evenodd"/><path fill="#666666" stroke="#666666" stroke-width="2.0" stroke-linecap="butt" d="m233.9459 138.8318l2.2541504 2.2441711l-2.2628784 -6.17453l-2.235443 6.1845093z" fill-rule="evenodd"/><path fill="#666666" stroke="#666666" stroke-width="2.0" stroke-linecap="butt" d="m235.61626 214.76129l-2.2541504 -2.2441711l2.2628784 6.17453l2.235443 -6.1845093z" fill-rule="evenodd"/><path fill="#000000" fill-opacity="0.0" d="m233.9307 64.67004l0 -34.519684" fill-rule="evenodd"/><path stroke="#666666" stroke-width="2.0" stroke-linejoin="round" stroke-linecap="butt" d="m233.9307 57.815865l0 -20.811337" fill-rule="evenodd"/><path fill="#666666" stroke="#666666" stroke-width="2.0" stroke-linecap="butt" d="m233.9307 57.81586l-2.249176 -2.2491646l2.249176 6.179535l2.2491608 -6.179535z" fill-rule="evenodd"/><path fill="#666666" stroke="#666666" stroke-width="2.0" stroke-linecap="butt" d="m233.9307 37.004524l2.2491608 2.2491684l-2.2491608 -6.179535l-2.249176 6.179535z" fill-rule="evenodd"/><path fill="#cccccc" d="m29.341028 400.34113l0 -74.14172l33.543304 0l0 74.14172z" fill-rule="evenodd"/><path stroke="#999999" stroke-width="1.0" stroke-linejoin="round" stroke-linecap="butt" d="m29.341028 400.34113l0 -74.14172l33.543304 0l0 74.14172z" fill-rule="evenodd"/><path fill="#000000" d="m40.613308 378.6572q0 -0.3125 0.171875 -0.484375q0.171875 -0.171875 0.453125 -0.171875l10.171875 0q0.296875 0 0.46875 0.171875q0.171875 0.171875 0.171875 0.484375q0 0.296875 -0.171875 0.46875q-0.171875 0.171875 -0.46875 0.171875l-0.859375 0q0.734375 0.34375 1.140625 1.03125q0.390625 0.671875 0.390625 1.59375q0 1.015625 -0.5 1.8125q-0.515625 0.78125 -1.4375 1.21875q-0.921875 0.421875 -2.140625 0.421875q-1.203125 0 -2.109375 -0.421875q-0.90625 -0.4375 -1.40625 -1.21875q-0.5 -0.796875 -0.5 -1.8125q0 -0.921875 0.40625 -1.59375q0.390625 -0.6875 1.125 -1.03125l-4.28125 0q-0.296875 0 -0.453125 -0.171875q-0.171875 -0.171875 -0.171875 -0.46875zm10.40625 3.0q0 -1.125 -0.78125 -1.734375q-0.78125 -0.625 -2.203125 -0.625q-1.421875 0 -2.1875 0.625q-0.765625 0.609375 -0.765625 1.734375q0 1.140625 0.765625 1.78125q0.765625 0.625 2.15625 0.625q1.421875 0 2.21875 -0.625q0.796875 -0.640625 0.796875 -1.78125zm-0.859375 -12.093262q0 -0.171875 0.15625 -0.296875q0.140625 -0.125 0.359375 -0.125q0.40625 0 0.734375 0.546875q0.34375 0.578125 0.515625 1.21875q0.15625 0.640625 0.15625 1.25q0 1.8125 -1.0625 2.859375q-1.078125 1.046875 -2.96875 1.046875q-1.203125 0 -2.109375 -0.453125q-0.921875 -0.46875 -1.4375 -1.3125q-0.515625 -0.84375 -0.515625 -1.921875q0 -1.515625 1.0 -2.40625q0.984375 -0.90625 2.6875 -0.90625q0.3125 0 0.453125 0.140625q0.140625 0.125 0.140625 0.40625l0 5.15625q2.765625 -0.140625 2.765625 -2.609375q0 -0.625 -0.171875 -1.0625q-0.171875 -0.453125 -0.453125 -0.96875q-0.25 -0.421875 -0.25 -0.5625zm-5.15625 2.796875q0 1.03125 0.640625 1.65625q0.625 0.609375 1.796875 0.71875l0 -4.53125q-1.1875 0.03125 -1.8125 0.59375q-0.625 0.5625 -0.625 1.5625zm-0.578125 -10.711029q-0.390625 -0.171875 -0.390625 -0.5625q0 -0.234375 0.171875 -0.421875q0.15625 -0.203125 0.390625 -0.203125q0.140625 0 0.25 0.0625l6.71875 3.125q0.21875 0.09375 0.34375 0.28125q0.109375 0.1875 0.109375 0.421875q0 0.203125 -0.109375 0.40625q-0.125 0.1875 -0.34375 0.296875l-6.71875 3.109375q-0.109375 0.0625 -0.234375 0.0625q-0.234375 0 -0.40625 -0.21875q-0.1875 -0.21875 -0.1875 -0.46875q0 -0.171875 0.09375 -0.3125q0.09375 -0.15625 0.28125 -0.234375l6.0 -2.671875l-5.96875 -2.671875zm7.625 -3.270874q0 0.296875 -0.15625 0.484375q-0.171875 0.171875 -0.484375 0.171875l-6.75 0q-0.296875 0 -0.46875 -0.171875q-0.171875 -0.1875 -0.171875 -0.484375q0 -0.28125 0.171875 -0.453125q0.171875 -0.1875 0.46875 -0.1875l6.75 0q0.328125 0 0.484375 0.1875q0.15625 0.171875 0.15625 0.453125zm-9.703125 0.015625q0 0.375 -0.21875 0.625q-0.234375 0.234375 -0.609375 0.234375q-0.34375 0 -0.5625 -0.234375q-0.234375 -0.25 -0.234375 -0.625q0 -0.390625 0.234375 -0.625q0.21875 -0.25 0.5625 -0.25q0.375 0 0.609375 0.25q0.21875 0.234375 0.21875 0.625zm9.734375 -6.2901306q0 1.09375 -0.484375 1.9375q-0.5 0.84375 -1.40625 1.296875q-0.921875 0.453125 -2.125 0.453125q-1.203125 0 -2.125 -0.46875q-0.921875 -0.484375 -1.4375 -1.328125q-0.515625 -0.84375 -0.515625 -1.953125q0 -0.609375 0.171875 -1.203125q0.171875 -0.59375 0.484375 -1.046875q0.1875 -0.296875 0.375 -0.40625q0.1875 -0.125 0.40625 -0.125q0.234375 0 0.375 0.125q0.140625 0.109375 0.140625 0.3125q0 0.109375 -0.0625 0.234375q-0.0625 0.125 -0.125 0.21875q-0.0625 0.09375 -0.078125 0.125q-0.28125 0.40625 -0.4375 0.78125q-0.15625 0.375 -0.15625 0.921875q0 1.171875 0.796875 1.828125q0.78125 0.640625 2.1875 0.640625q1.40625 0 2.1875 -0.640625q0.765625 -0.65625 0.765625 -1.828125q0 -0.546875 -0.15625 -0.9375q-0.171875 -0.390625 -0.4375 -0.78125q-0.109375 -0.1875 -0.1875 -0.34375q-0.09375 -0.15625 -0.09375 -0.265625q0 -0.1875 0.15625 -0.296875q0.140625 -0.125 0.359375 -0.125q0.203125 0 0.375 0.109375q0.171875 0.109375 0.375 0.421875q0.3125 0.453125 0.5 1.078125q0.171875 0.625 0.171875 1.265625zm-1.921875 -10.476532q0 -0.171875 0.15625 -0.296875q0.140625 -0.125 0.359375 -0.125q0.40625 0 0.734375 0.546875q0.34375 0.578125 0.515625 1.21875q0.15625 0.640625 0.15625 1.25q0 1.8125 -1.0625 2.859375q-1.078125 1.046875 -2.96875 1.046875q-1.203125 0 -2.109375 -0.453125q-0.921875 -0.46875 -1.4375 -1.3125q-0.515625 -0.84375 -0.515625 -1.921875q0 -1.515625 1.0 -2.40625q0.984375 -0.90625 2.6875 -0.90625q0.3125 0 0.453125 0.140625q0.140625 0.125 0.140625 0.40625l0 5.15625q2.765625 -0.140625 2.765625 -2.609375q0 -0.625 -0.171875 -1.0625q-0.171875 -0.453125 -0.453125 -0.96875q-0.25 -0.421875 -0.25 -0.5625zm-5.15625 2.796875q0 1.03125 0.640625 1.65625q0.625 0.609375 1.796875 0.71875l0 -4.53125q-1.1875 0.03125 -1.8125 0.59375q-0.625 0.5625 -0.625 1.5625z" fill-rule="nonzero"/><path fill="#cccccc" d="m72.76098 400.34113l0 -74.14172l33.543304 0l0 74.14172z" fill-rule="evenodd"/><path stroke="#999999" stroke-width="1.0" stroke-linejoin="round" stroke-linecap="butt" d="m72.76098 400.34113l0 -74.14172l33.543304 0l0 74.14172z" fill-rule="evenodd"/><path fill="#000000" d="m84.03326 378.6572q0 -0.3125 0.171875 -0.484375q0.171875 -0.171875 0.453125 -0.171875l10.171875 0q0.296875 0 0.46875 0.171875q0.171875 0.171875 0.171875 0.484375q0 0.296875 -0.171875 0.46875q-0.171875 0.171875 -0.46875 0.171875l-0.859375 0q0.734375 0.34375 1.140625 1.03125q0.390625 0.671875 0.390625 1.59375q0 1.015625 -0.5 1.8125q-0.515625 0.78125 -1.4375 1.21875q-0.921875 0.421875 -2.140625 0.421875q-1.203125 0 -2.109375 -0.421875q-0.90625 -0.4375 -1.40625 -1.21875q-0.5 -0.796875 -0.5 -1.8125q0 -0.921875 0.40625 -1.59375q0.390625 -0.6875 1.125 -1.03125l-4.28125 0q-0.296875 0 -0.453125 -0.171875q-0.171875 -0.171875 -0.171875 -0.46875zm10.40625 3.0q0 -1.125 -0.78125 -1.734375q-0.78125 -0.625 -2.203125 -0.625q-1.421875 0 -2.1875 0.625q-0.765625 0.609375 -0.765625 1.734375q0 1.140625 0.765625 1.78125q0.765625 0.625 2.15625 0.625q1.421875 0 2.21875 -0.625q0.796875 -0.640625 0.796875 -1.78125zm-0.859375 -12.093262q0 -0.171875 0.15625 -0.296875q0.140625 -0.125 0.359375 -0.125q0.40625 0 0.734375 0.546875q0.34375 0.578125 0.515625 1.21875q0.15625 0.640625 0.15625 1.25q0 1.8125 -1.0625 2.859375q-1.078125 1.046875 -2.96875 1.046875q-1.203125 0 -2.109375 -0.453125q-0.921875 -0.46875 -1.4375 -1.3125q-0.515625 -0.84375 -0.515625 -1.921875q0 -1.515625 1.0 -2.40625q0.984375 -0.90625 2.6875 -0.90625q0.3125 0 0.453125 0.140625q0.140625 0.125 0.140625 0.40625l0 5.15625q2.765625 -0.140625 2.765625 -2.609375q0 -0.625 -0.171875 -1.0625q-0.171875 -0.453125 -0.453125 -0.96875q-0.25 -0.421875 -0.25 -0.5625zm-5.15625 2.796875q0 1.03125 0.640625 1.65625q0.625 0.609375 1.796875 0.71875l0 -4.53125q-1.1875 0.03125 -1.8125 0.59375q-0.625 0.5625 -0.625 1.5625zm-0.578125 -10.711029q-0.390625 -0.171875 -0.390625 -0.5625q0 -0.234375 0.171875 -0.421875q0.15625 -0.203125 0.390625 -0.203125q0.140625 0 0.25 0.0625l6.71875 3.125q0.21875 0.09375 0.34375 0.28125q0.109375 0.1875 0.109375 0.421875q0 0.203125 -0.109375 0.40625q-0.125 0.1875 -0.34375 0.296875l-6.71875 3.109375q-0.109375 0.0625 -0.234375 0.0625q-0.234375 0 -0.40625 -0.21875q-0.1875 -0.21875 -0.1875 -0.46875q0 -0.171875 0.09375 -0.3125q0.09375 -0.15625 0.28125 -0.234375l6.0 -2.671875l-5.96875 -2.671875zm7.625 -3.270874q0 0.296875 -0.15625 0.484375q-0.171875 0.171875 -0.484375 0.171875l-6.75 0q-0.296875 0 -0.46875 -0.171875q-0.171875 -0.1875 -0.171875 -0.484375q0 -0.28125 0.171875 -0.453125q0.171875 -0.1875 0.46875 -0.1875l6.75 0q0.328125 0 0.484375 0.1875q0.15625 0.171875 0.15625 0.453125zm-9.703125 0.015625q0 0.375 -0.21875 0.625q-0.234375 0.234375 -0.609375 0.234375q-0.34375 0 -0.5625 -0.234375q-0.234375 -0.25 -0.234375 -0.625q0 -0.390625 0.234375 -0.625q0.21875 -0.25 0.5625 -0.25q0.375 0 0.609375 0.25q0.21875 0.234375 0.21875 0.625zm9.734375 -6.2901306q0 1.09375 -0.484375 1.9375q-0.5 0.84375 -1.40625 1.296875q-0.921875 0.453125 -2.125 0.453125q-1.203125 0 -2.125 -0.46875q-0.921875 -0.484375 -1.4375 -1.328125q-0.515625 -0.84375 -0.515625 -1.953125q0 -0.609375 0.171875 -1.203125q0.171875 -0.59375 0.484375 -1.046875q0.1875 -0.296875 0.375 -0.40625q0.1875 -0.125 0.40625 -0.125q0.234375 0 0.375 0.125q0.140625 0.109375 0.140625 0.3125q0 0.109375 -0.0625 0.234375q-0.0625 0.125 -0.125 0.21875q-0.0625 0.09375 -0.078125 0.125q-0.28125 0.40625 -0.4375 0.78125q-0.15625 0.375 -0.15625 0.921875q0 1.171875 0.796875 1.828125q0.78125 0.640625 2.1875 0.640625q1.40625 0 2.1875 -0.640625q0.765625 -0.65625 0.765625 -1.828125q0 -0.546875 -0.15625 -0.9375q-0.171875 -0.390625 -0.4375 -0.78125q-0.109375 -0.1875 -0.1875 -0.34375q-0.09375 -0.15625 -0.09375 -0.265625q0 -0.1875 0.15625 -0.296875q0.140625 -0.125 0.359375 -0.125q0.203125 0 0.375 0.109375q0.171875 0.109375 0.375 0.421875q0.3125 0.453125 0.5 1.078125q0.171875 0.625 0.171875 1.265625zm-1.921875 -10.476532q0 -0.171875 0.15625 -0.296875q0.140625 -0.125 0.359375 -0.125q0.40625 0 0.734375 0.546875q0.34375 0.578125 0.515625 1.21875q0.15625 0.640625 0.15625 1.25q0 1.8125 -1.0625 2.859375q-1.078125 1.046875 -2.96875 1.046875q-1.203125 0 -2.109375 -0.453125q-0.921875 -0.46875 -1.4375 -1.3125q-0.515625 -0.84375 -0.515625 -1.921875q0 -1.515625 1.0 -2.40625q0.984375 -0.90625 2.6875 -0.90625q0.3125 0 0.453125 0.140625q0.140625 0.125 0.140625 0.40625l0 5.15625q2.765625 -0.140625 2.765625 -2.609375q0 -0.625 -0.171875 -1.0625q-0.171875 -0.453125 -0.453125 -0.96875q-0.25 -0.421875 -0.25 -0.5625zm-5.15625 2.796875q0 1.03125 0.640625 1.65625q0.625 0.609375 1.796875 0.71875l0 -4.53125q-1.1875 0.03125 -1.8125 0.59375q-0.625 0.5625 -0.625 1.5625z" fill-rule="nonzero"/><path fill="#cccccc" d="m116.18092 400.34113l0 -74.14172l33.543304 0l0 74.14172z" fill-rule="evenodd"/><path stroke="#999999" stroke-width="1.0" stroke-linejoin="round" stroke-linecap="butt" d="m116.18092 400.34113l0 -74.14172l33.543304 0l0 74.14172z" fill-rule="evenodd"/><path fill="#000000" d="m127.4532 378.6572q0 -0.3125 0.171875 -0.484375q0.171875 -0.171875 0.453125 -0.171875l10.171875 0q0.296875 0 0.46875 0.171875q0.171875 0.171875 0.171875 0.484375q0 0.296875 -0.171875 0.46875q-0.171875 0.171875 -0.46875 0.171875l-0.859375 0q0.734375 0.34375 1.140625 1.03125q0.390625 0.671875 0.390625 1.59375q0 1.015625 -0.5 1.8125q-0.515625 0.78125 -1.4375 1.21875q-0.921875 0.421875 -2.140625 0.421875q-1.203125 0 -2.109375 -0.421875q-0.90625 -0.4375 -1.40625 -1.21875q-0.5 -0.796875 -0.5 -1.8125q0 -0.921875 0.40625 -1.59375q0.390625 -0.6875 1.125 -1.03125l-4.28125 0q-0.296875 0 -0.453125 -0.171875q-0.171875 -0.171875 -0.171875 -0.46875zm10.40625 3.0q0 -1.125 -0.78125 -1.734375q-0.78125 -0.625 -2.203125 -0.625q-1.421875 0 -2.1875 0.625q-0.765625 0.609375 -0.765625 1.734375q0 1.140625 0.765625 1.78125q0.765625 0.625 2.15625 0.625q1.421875 0 2.21875 -0.625q0.796875 -0.640625 0.796875 -1.78125zm-0.859375 -12.093262q0 -0.171875 0.15625 -0.296875q0.140625 -0.125 0.359375 -0.125q0.40625 0 0.734375 0.546875q0.34375 0.578125 0.515625 1.21875q0.15625 0.640625 0.15625 1.25q0 1.8125 -1.0625 2.859375q-1.078125 1.046875 -2.96875 1.046875q-1.203125 0 -2.109375 -0.453125q-0.921875 -0.46875 -1.4375 -1.3125q-0.515625 -0.84375 -0.515625 -1.921875q0 -1.515625 1.0 -2.40625q0.984375 -0.90625 2.6875 -0.90625q0.3125 0 0.453125 0.140625q0.140625 0.125 0.140625 0.40625l0 5.15625q2.765625 -0.140625 2.765625 -2.609375q0 -0.625 -0.171875 -1.0625q-0.171875 -0.453125 -0.453125 -0.96875q-0.25 -0.421875 -0.25 -0.5625zm-5.15625 2.796875q0 1.03125 0.640625 1.65625q0.625 0.609375 1.796875 0.71875l0 -4.53125q-1.1875 0.03125 -1.8125 0.59375q-0.625 0.5625 -0.625 1.5625zm-0.578125 -10.711029q-0.390625 -0.171875 -0.390625 -0.5625q0 -0.234375 0.171875 -0.421875q0.15625 -0.203125 0.390625 -0.203125q0.140625 0 0.25 0.0625l6.71875 3.125q0.21875 0.09375 0.34375 0.28125q0.109375 0.1875 0.109375 0.421875q0 0.203125 -0.109375 0.40625q-0.125 0.1875 -0.34375 0.296875l-6.71875 3.109375q-0.109375 0.0625 -0.234375 0.0625q-0.234375 0 -0.40625 -0.21875q-0.1875 -0.21875 -0.1875 -0.46875q0 -0.171875 0.09375 -0.3125q0.09375 -0.15625 0.28125 -0.234375l6.0 -2.671875l-5.96875 -2.671875zm7.625 -3.270874q0 0.296875 -0.15625 0.484375q-0.171875 0.171875 -0.484375 0.171875l-6.75 0q-0.296875 0 -0.46875 -0.171875q-0.171875 -0.1875 -0.171875 -0.484375q0 -0.28125 0.171875 -0.453125q0.171875 -0.1875 0.46875 -0.1875l6.75 0q0.328125 0 0.484375 0.1875q0.15625 0.171875 0.15625 0.453125zm-9.703125 0.015625q0 0.375 -0.21875 0.625q-0.234375 0.234375 -0.609375 0.234375q-0.34375 0 -0.5625 -0.234375q-0.234375 -0.25 -0.234375 -0.625q0 -0.390625 0.234375 -0.625q0.21875 -0.25 0.5625 -0.25q0.375 0 0.609375 0.25q0.21875 0.234375 0.21875 0.625zm9.734375 -6.2901306q0 1.09375 -0.484375 1.9375q-0.5 0.84375 -1.40625 1.296875q-0.921875 0.453125 -2.125 0.453125q-1.203125 0 -2.125 -0.46875q-0.921875 -0.484375 -1.4375 -1.328125q-0.515625 -0.84375 -0.515625 -1.953125q0 -0.609375 0.171875 -1.203125q0.171875 -0.59375 0.484375 -1.046875q0.1875 -0.296875 0.375 -0.40625q0.1875 -0.125 0.40625 -0.125q0.234375 0 0.375 0.125q0.140625 0.109375 0.140625 0.3125q0 0.109375 -0.0625 0.234375q-0.0625 0.125 -0.125 0.21875q-0.0625 0.09375 -0.078125 0.125q-0.28125 0.40625 -0.4375 0.78125q-0.15625 0.375 -0.15625 0.921875q0 1.171875 0.796875 1.828125q0.78125 0.640625 2.1875 0.640625q1.40625 0 2.1875 -0.640625q0.765625 -0.65625 0.765625 -1.828125q0 -0.546875 -0.15625 -0.9375q-0.171875 -0.390625 -0.4375 -0.78125q-0.109375 -0.1875 -0.1875 -0.34375q-0.09375 -0.15625 -0.09375 -0.265625q0 -0.1875 0.15625 -0.296875q0.140625 -0.125 0.359375 -0.125q0.203125 0 0.375 0.109375q0.171875 0.109375 0.375 0.421875q0.3125 0.453125 0.5 1.078125q0.171875 0.625 0.171875 1.265625zm-1.921875 -10.476532q0 -0.171875 0.15625 -0.296875q0.140625 -0.125 0.359375 -0.125q0.40625 0 0.734375 0.546875q0.34375 0.578125 0.515625 1.21875q0.15625 0.640625 0.15625 1.25q0 1.8125 -1.0625 2.859375q-1.078125 1.046875 -2.96875 1.046875q-1.203125 0 -2.109375 -0.453125q-0.921875 -0.46875 -1.4375 -1.3125q-0.515625 -0.84375 -0.515625 -1.921875q0 -1.515625 1.0 -2.40625q0.984375 -0.90625 2.6875 -0.90625q0.3125 0 0.453125 0.140625q0.140625 0.125 0.140625 0.40625l0 5.15625q2.765625 -0.140625 2.765625 -2.609375q0 -0.625 -0.171875 -1.0625q-0.171875 -0.453125 -0.453125 -0.96875q-0.25 -0.421875 -0.25 -0.5625zm-5.15625 2.796875q0 1.03125 0.640625 1.65625q0.625 0.609375 1.796875 0.71875l0 -4.53125q-1.1875 0.03125 -1.8125 0.59375q-0.625 0.5625 -0.625 1.5625z" fill-rule="nonzero"/><path fill="#cccccc" d="m345.07565 400.34113l0 -74.14172l33.543304 0l0 74.14172z" fill-rule="evenodd"/><path stroke="#999999" stroke-width="1.0" stroke-linejoin="round" stroke-linecap="butt" d="m345.07565 400.34113l0 -74.14172l33.543304 0l0 74.14172z" fill-rule="evenodd"/><path fill="#000000" d="m356.34793 378.6572q0 -0.3125 0.171875 -0.484375q0.171875 -0.171875 0.453125 -0.171875l10.171875 0q0.296875 0 0.46875 0.171875q0.171875 0.171875 0.171875 0.484375q0 0.296875 -0.171875 0.46875q-0.171875 0.171875 -0.46875 0.171875l-0.859375 0q0.734375 0.34375 1.140625 1.03125q0.390625 0.671875 0.390625 1.59375q0 1.015625 -0.5 1.8125q-0.515625 0.78125 -1.4375 1.21875q-0.921875 0.421875 -2.140625 0.421875q-1.203125 0 -2.109375 -0.421875q-0.90625 -0.4375 -1.40625 -1.21875q-0.5 -0.796875 -0.5 -1.8125q0 -0.921875 0.40625 -1.59375q0.390625 -0.6875 1.125 -1.03125l-4.28125 0q-0.296875 0 -0.453125 -0.171875q-0.171875 -0.171875 -0.171875 -0.46875zm10.40625 3.0q0 -1.125 -0.78125 -1.734375q-0.78125 -0.625 -2.203125 -0.625q-1.421875 0 -2.1875 0.625q-0.765625 0.609375 -0.765625 1.734375q0 1.140625 0.765625 1.78125q0.765625 0.625 2.15625 0.625q1.421875 0 2.21875 -0.625q0.796875 -0.640625 0.796875 -1.78125zm-0.859375 -12.093262q0 -0.171875 0.15625 -0.296875q0.140625 -0.125 0.359375 -0.125q0.40625 0 0.734375 0.546875q0.34375 0.578125 0.515625 1.21875q0.15625 0.640625 0.15625 1.25q0 1.8125 -1.0625 2.859375q-1.078125 1.046875 -2.96875 1.046875q-1.203125 0 -2.109375 -0.453125q-0.921875 -0.46875 -1.4375 -1.3125q-0.515625 -0.84375 -0.515625 -1.921875q0 -1.515625 1.0 -2.40625q0.984375 -0.90625 2.6875 -0.90625q0.3125 0 0.453125 0.140625q0.140625 0.125 0.140625 0.40625l0 5.15625q2.765625 -0.140625 2.765625 -2.609375q0 -0.625 -0.171875 -1.0625q-0.171875 -0.453125 -0.453125 -0.96875q-0.25 -0.421875 -0.25 -0.5625zm-5.15625 2.796875q0 1.03125 0.640625 1.65625q0.625 0.609375 1.796875 0.71875l0 -4.53125q-1.1875 0.03125 -1.8125 0.59375q-0.625 0.5625 -0.625 1.5625zm-0.578125 -10.711029q-0.390625 -0.171875 -0.390625 -0.5625q0 -0.234375 0.171875 -0.421875q0.15625 -0.203125 0.390625 -0.203125q0.140625 0 0.25 0.0625l6.71875 3.125q0.21875 0.09375 0.34375 0.28125q0.109375 0.1875 0.109375 0.421875q0 0.203125 -0.109375 0.40625q-0.125 0.1875 -0.34375 0.296875l-6.71875 3.109375q-0.109375 0.0625 -0.234375 0.0625q-0.234375 0 -0.40625 -0.21875q-0.1875 -0.21875 -0.1875 -0.46875q0 -0.171875 0.09375 -0.3125q0.09375 -0.15625 0.28125 -0.234375l6.0 -2.671875l-5.96875 -2.671875zm7.625 -3.270874q0 0.296875 -0.15625 0.484375q-0.171875 0.171875 -0.484375 0.171875l-6.75 0q-0.296875 0 -0.46875 -0.171875q-0.171875 -0.1875 -0.171875 -0.484375q0 -0.28125 0.171875 -0.453125q0.171875 -0.1875 0.46875 -0.1875l6.75 0q0.328125 0 0.484375 0.1875q0.15625 0.171875 0.15625 0.453125zm-9.703125 0.015625q0 0.375 -0.21875 0.625q-0.234375 0.234375 -0.609375 0.234375q-0.34375 0 -0.5625 -0.234375q-0.234375 -0.25 -0.234375 -0.625q0 -0.390625 0.234375 -0.625q0.21875 -0.25 0.5625 -0.25q0.375 0 0.609375 0.25q0.21875 0.234375 0.21875 0.625zm9.734375 -6.2901306q0 1.09375 -0.484375 1.9375q-0.5 0.84375 -1.40625 1.296875q-0.921875 0.453125 -2.125 0.453125q-1.203125 0 -2.125 -0.46875q-0.921875 -0.484375 -1.4375 -1.328125q-0.515625 -0.84375 -0.515625 -1.953125q0 -0.609375 0.171875 -1.203125q0.171875 -0.59375 0.484375 -1.046875q0.1875 -0.296875 0.375 -0.40625q0.1875 -0.125 0.40625 -0.125q0.234375 0 0.375 0.125q0.140625 0.109375 0.140625 0.3125q0 0.109375 -0.0625 0.234375q-0.0625 0.125 -0.125 0.21875q-0.0625 0.09375 -0.078125 0.125q-0.28125 0.40625 -0.4375 0.78125q-0.15625 0.375 -0.15625 0.921875q0 1.171875 0.796875 1.828125q0.78125 0.640625 2.1875 0.640625q1.40625 0 2.1875 -0.640625q0.765625 -0.65625 0.765625 -1.828125q0 -0.546875 -0.15625 -0.9375q-0.171875 -0.390625 -0.4375 -0.78125q-0.109375 -0.1875 -0.1875 -0.34375q-0.09375 -0.15625 -0.09375 -0.265625q0 -0.1875 0.15625 -0.296875q0.140625 -0.125 0.359375 -0.125q0.203125 0 0.375 0.109375q0.171875 0.109375 0.375 0.421875q0.3125 0.453125 0.5 1.078125q0.171875 0.625 0.171875 1.265625zm-1.921875 -10.476532q0 -0.171875 0.15625 -0.296875q0.140625 -0.125 0.359375 -0.125q0.40625 0 0.734375 0.546875q0.34375 0.578125 0.515625 1.21875q0.15625 0.640625 0.15625 1.25q0 1.8125 -1.0625 2.859375q-1.078125 1.046875 -2.96875 1.046875q-1.203125 0 -2.109375 -0.453125q-0.921875 -0.46875 -1.4375 -1.3125q-0.515625 -0.84375 -0.515625 -1.921875q0 -1.515625 1.0 -2.40625q0.984375 -0.90625 2.6875 -0.90625q0.3125 0 0.453125 0.140625q0.140625 0.125 0.140625 0.40625l0 5.15625q2.765625 -0.140625 2.765625 -2.609375q0 -0.625 -0.171875 -1.0625q-0.171875 -0.453125 -0.453125 -0.96875q-0.25 -0.421875 -0.25 -0.5625zm-5.15625 2.796875q0 1.03125 0.640625 1.65625q0.625 0.609375 1.796875 0.71875l0 -4.53125q-1.1875 0.03125 -1.8125 0.59375q-0.625 0.5625 -0.625 1.5625z" fill-rule="nonzero"/><path fill="#cccccc" d="m388.49692 400.34113l0 -74.14172l33.543304 0l0 74.14172z" fill-rule="evenodd"/><path stroke="#999999" stroke-width="1.0" stroke-linejoin="round" stroke-linecap="butt" d="m388.49692 400.34113l0 -74.14172l33.543304 0l0 74.14172z" fill-rule="evenodd"/><path fill="#000000" d="m399.7692 378.6572q0 -0.3125 0.171875 -0.484375q0.171875 -0.171875 0.453125 -0.171875l10.171875 0q0.296875 0 0.46875 0.171875q0.171875 0.171875 0.171875 0.484375q0 0.296875 -0.171875 0.46875q-0.171875 0.171875 -0.46875 0.171875l-0.859375 0q0.734375 0.34375 1.140625 1.03125q0.390625 0.671875 0.390625 1.59375q0 1.015625 -0.5 1.8125q-0.515625 0.78125 -1.4375 1.21875q-0.921875 0.421875 -2.140625 0.421875q-1.203125 0 -2.109375 -0.421875q-0.90625 -0.4375 -1.40625 -1.21875q-0.5 -0.796875 -0.5 -1.8125q0 -0.921875 0.40625 -1.59375q0.390625 -0.6875 1.125 -1.03125l-4.28125 0q-0.296875 0 -0.453125 -0.171875q-0.171875 -0.171875 -0.171875 -0.46875zm10.40625 3.0q0 -1.125 -0.78125 -1.734375q-0.78125 -0.625 -2.203125 -0.625q-1.421875 0 -2.1875 0.625q-0.765625 0.609375 -0.765625 1.734375q0 1.140625 0.765625 1.78125q0.765625 0.625 2.15625 0.625q1.421875 0 2.21875 -0.625q0.796875 -0.640625 0.796875 -1.78125zm-0.859375 -12.093262q0 -0.171875 0.15625 -0.296875q0.140625 -0.125 0.359375 -0.125q0.40625 0 0.734375 0.546875q0.34375 0.578125 0.515625 1.21875q0.15625 0.640625 0.15625 1.25q0 1.8125 -1.0625 2.859375q-1.078125 1.046875 -2.96875 1.046875q-1.203125 0 -2.109375 -0.453125q-0.921875 -0.46875 -1.4375 -1.3125q-0.515625 -0.84375 -0.515625 -1.921875q0 -1.515625 1.0 -2.40625q0.984375 -0.90625 2.6875 -0.90625q0.3125 0 0.453125 0.140625q0.140625 0.125 0.140625 0.40625l0 5.15625q2.765625 -0.140625 2.765625 -2.609375q0 -0.625 -0.171875 -1.0625q-0.171875 -0.453125 -0.453125 -0.96875q-0.25 -0.421875 -0.25 -0.5625zm-5.15625 2.796875q0 1.03125 0.640625 1.65625q0.625 0.609375 1.796875 0.71875l0 -4.53125q-1.1875 0.03125 -1.8125 0.59375q-0.625 0.5625 -0.625 1.5625zm-0.578125 -10.711029q-0.390625 -0.171875 -0.390625 -0.5625q0 -0.234375 0.171875 -0.421875q0.15625 -0.203125 0.390625 -0.203125q0.140625 0 0.25 0.0625l6.71875 3.125q0.21875 0.09375 0.34375 0.28125q0.109375 0.1875 0.109375 0.421875q0 0.203125 -0.109375 0.40625q-0.125 0.1875 -0.34375 0.296875l-6.71875 3.109375q-0.109375 0.0625 -0.234375 0.0625q-0.234375 0 -0.40625 -0.21875q-0.1875 -0.21875 -0.1875 -0.46875q0 -0.171875 0.09375 -0.3125q0.09375 -0.15625 0.28125 -0.234375l6.0 -2.671875l-5.96875 -2.671875zm7.625 -3.270874q0 0.296875 -0.15625 0.484375q-0.171875 0.171875 -0.484375 0.171875l-6.75 0q-0.296875 0 -0.46875 -0.171875q-0.171875 -0.1875 -0.171875 -0.484375q0 -0.28125 0.171875 -0.453125q0.171875 -0.1875 0.46875 -0.1875l6.75 0q0.328125 0 0.484375 0.1875q0.15625 0.171875 0.15625 0.453125zm-9.703125 0.015625q0 0.375 -0.21875 0.625q-0.234375 0.234375 -0.609375 0.234375q-0.34375 0 -0.5625 -0.234375q-0.234375 -0.25 -0.234375 -0.625q0 -0.390625 0.234375 -0.625q0.21875 -0.25 0.5625 -0.25q0.375 0 0.609375 0.25q0.21875 0.234375 0.21875 0.625zm9.734375 -6.2901306q0 1.09375 -0.484375 1.9375q-0.5 0.84375 -1.40625 1.296875q-0.921875 0.453125 -2.125 0.453125q-1.203125 0 -2.125 -0.46875q-0.921875 -0.484375 -1.4375 -1.328125q-0.515625 -0.84375 -0.515625 -1.953125q0 -0.609375 0.171875 -1.203125q0.171875 -0.59375 0.484375 -1.046875q0.1875 -0.296875 0.375 -0.40625q0.1875 -0.125 0.40625 -0.125q0.234375 0 0.375 0.125q0.140625 0.109375 0.140625 0.3125q0 0.109375 -0.0625 0.234375q-0.0625 0.125 -0.125 0.21875q-0.0625 0.09375 -0.078125 0.125q-0.28125 0.40625 -0.4375 0.78125q-0.15625 0.375 -0.15625 0.921875q0 1.171875 0.796875 1.828125q0.78125 0.640625 2.1875 0.640625q1.40625 0 2.1875 -0.640625q0.765625 -0.65625 0.765625 -1.828125q0 -0.546875 -0.15625 -0.9375q-0.171875 -0.390625 -0.4375 -0.78125q-0.109375 -0.1875 -0.1875 -0.34375q-0.09375 -0.15625 -0.09375 -0.265625q0 -0.1875 0.15625 -0.296875q0.140625 -0.125 0.359375 -0.125q0.203125 0 0.375 0.109375q0.171875 0.109375 0.375 0.421875q0.3125 0.453125 0.5 1.078125q0.171875 0.625 0.171875 1.265625zm-1.921875 -10.476532q0 -0.171875 0.15625 -0.296875q0.140625 -0.125 0.359375 -0.125q0.40625 0 0.734375 0.546875q0.34375 0.578125 0.515625 1.21875q0.15625 0.640625 0.15625 1.25q0 1.8125 -1.0625 2.859375q-1.078125 1.046875 -2.96875 1.046875q-1.203125 0 -2.109375 -0.453125q-0.921875 -0.46875 -1.4375 -1.3125q-0.515625 -0.84375 -0.515625 -1.921875q0 -1.515625 1.0 -2.40625q0.984375 -0.90625 2.6875 -0.90625q0.3125 0 0.453125 0.140625q0.140625 0.125 0.140625 0.40625l0 5.15625q2.765625 -0.140625 2.765625 -2.609375q0 -0.625 -0.171875 -1.0625q-0.171875 -0.453125 -0.453125 -0.96875q-0.25 -0.421875 -0.25 -0.5625zm-5.15625 2.796875q0 1.03125 0.640625 1.65625q0.625 0.609375 1.796875 0.71875l0 -4.53125q-1.1875 0.03125 -1.8125 0.59375q-0.625 0.5625 -0.625 1.5625z" fill-rule="nonzero"/><path fill="#cccccc" d="m218.32092 400.34113l0 -74.14172l33.543304 0l0 74.14172z" fill-rule="evenodd"/><path stroke="#999999" stroke-width="1.0" stroke-linejoin="round" stroke-linecap="butt" d="m218.32092 400.34113l0 -74.14172l33.543304 0l0 74.14172z" fill-rule="evenodd"/><path fill="#000000" d="m229.5932 378.6572q0 -0.3125 0.171875 -0.484375q0.171875 -0.171875 0.453125 -0.171875l10.171875 0q0.296875 0 0.46875 0.171875q0.171875 0.171875 0.171875 0.484375q0 0.296875 -0.171875 0.46875q-0.171875 0.171875 -0.46875 0.171875l-0.859375 0q0.734375 0.34375 1.140625 1.03125q0.390625 0.671875 0.390625 1.59375q0 1.015625 -0.5 1.8125q-0.515625 0.78125 -1.4375 1.21875q-0.921875 0.421875 -2.140625 0.421875q-1.203125 0 -2.109375 -0.421875q-0.90625 -0.4375 -1.40625 -1.21875q-0.5 -0.796875 -0.5 -1.8125q0 -0.921875 0.40625 -1.59375q0.390625 -0.6875 1.125 -1.03125l-4.28125 0q-0.296875 0 -0.453125 -0.171875q-0.171875 -0.171875 -0.171875 -0.46875zm10.40625 3.0q0 -1.125 -0.78125 -1.734375q-0.78125 -0.625 -2.203125 -0.625q-1.421875 0 -2.1875 0.625q-0.765625 0.609375 -0.765625 1.734375q0 1.140625 0.765625 1.78125q0.765625 0.625 2.15625 0.625q1.421875 0 2.21875 -0.625q0.796875 -0.640625 0.796875 -1.78125zm-0.859375 -12.093262q0 -0.171875 0.15625 -0.296875q0.140625 -0.125 0.359375 -0.125q0.40625 0 0.734375 0.546875q0.34375 0.578125 0.515625 1.21875q0.15625 0.640625 0.15625 1.25q0 1.8125 -1.0625 2.859375q-1.078125 1.046875 -2.96875 1.046875q-1.203125 0 -2.109375 -0.453125q-0.921875 -0.46875 -1.4375 -1.3125q-0.515625 -0.84375 -0.515625 -1.921875q0 -1.515625 1.0 -2.40625q0.984375 -0.90625 2.6875 -0.90625q0.3125 0 0.453125 0.140625q0.140625 0.125 0.140625 0.40625l0 5.15625q2.765625 -0.140625 2.765625 -2.609375q0 -0.625 -0.171875 -1.0625q-0.171875 -0.453125 -0.453125 -0.96875q-0.25 -0.421875 -0.25 -0.5625zm-5.15625 2.796875q0 1.03125 0.640625 1.65625q0.625 0.609375 1.796875 0.71875l0 -4.53125q-1.1875 0.03125 -1.8125 0.59375q-0.625 0.5625 -0.625 1.5625zm-0.578125 -10.711029q-0.390625 -0.171875 -0.390625 -0.5625q0 -0.234375 0.171875 -0.421875q0.15625 -0.203125 0.390625 -0.203125q0.140625 0 0.25 0.0625l6.71875 3.125q0.21875 0.09375 0.34375 0.28125q0.109375 0.1875 0.109375 0.421875q0 0.203125 -0.109375 0.40625q-0.125 0.1875 -0.34375 0.296875l-6.71875 3.109375q-0.109375 0.0625 -0.234375 0.0625q-0.234375 0 -0.40625 -0.21875q-0.1875 -0.21875 -0.1875 -0.46875q0 -0.171875 0.09375 -0.3125q0.09375 -0.15625 0.28125 -0.234375l6.0 -2.671875l-5.96875 -2.671875zm7.625 -3.270874q0 0.296875 -0.15625 0.484375q-0.171875 0.171875 -0.484375 0.171875l-6.75 0q-0.296875 0 -0.46875 -0.171875q-0.171875 -0.1875 -0.171875 -0.484375q0 -0.28125 0.171875 -0.453125q0.171875 -0.1875 0.46875 -0.1875l6.75 0q0.328125 0 0.484375 0.1875q0.15625 0.171875 0.15625 0.453125zm-9.703125 0.015625q0 0.375 -0.21875 0.625q-0.234375 0.234375 -0.609375 0.234375q-0.34375 0 -0.5625 -0.234375q-0.234375 -0.25 -0.234375 -0.625q0 -0.390625 0.234375 -0.625q0.21875 -0.25 0.5625 -0.25q0.375 0 0.609375 0.25q0.21875 0.234375 0.21875 0.625zm9.734375 -6.2901306q0 1.09375 -0.484375 1.9375q-0.5 0.84375 -1.40625 1.296875q-0.921875 0.453125 -2.125 0.453125q-1.203125 0 -2.125 -0.46875q-0.921875 -0.484375 -1.4375 -1.328125q-0.515625 -0.84375 -0.515625 -1.953125q0 -0.609375 0.171875 -1.203125q0.171875 -0.59375 0.484375 -1.046875q0.1875 -0.296875 0.375 -0.40625q0.1875 -0.125 0.40625 -0.125q0.234375 0 0.375 0.125q0.140625 0.109375 0.140625 0.3125q0 0.109375 -0.0625 0.234375q-0.0625 0.125 -0.125 0.21875q-0.0625 0.09375 -0.078125 0.125q-0.28125 0.40625 -0.4375 0.78125q-0.15625 0.375 -0.15625 0.921875q0 1.171875 0.796875 1.828125q0.78125 0.640625 2.1875 0.640625q1.40625 0 2.1875 -0.640625q0.765625 -0.65625 0.765625 -1.828125q0 -0.546875 -0.15625 -0.9375q-0.171875 -0.390625 -0.4375 -0.78125q-0.109375 -0.1875 -0.1875 -0.34375q-0.09375 -0.15625 -0.09375 -0.265625q0 -0.1875 0.15625 -0.296875q0.140625 -0.125 0.359375 -0.125q0.203125 0 0.375 0.109375q0.171875 0.109375 0.375 0.421875q0.3125 0.453125 0.5 1.078125q0.171875 0.625 0.171875 1.265625zm-1.921875 -10.476532q0 -0.171875 0.15625 -0.296875q0.140625 -0.125 0.359375 -0.125q0.40625 0 0.734375 0.546875q0.34375 0.578125 0.515625 1.21875q0.15625 0.640625 0.15625 1.25q0 1.8125 -1.0625 2.859375q-1.078125 1.046875 -2.96875 1.046875q-1.203125 0 -2.109375 -0.453125q-0.921875 -0.46875 -1.4375 -1.3125q-0.515625 -0.84375 -0.515625 -1.921875q0 -1.515625 1.0 -2.40625q0.984375 -0.90625 2.6875 -0.90625q0.3125 0 0.453125 0.140625q0.140625 0.125 0.140625 0.40625l0 5.15625q2.765625 -0.140625 2.765625 -2.609375q0 -0.625 -0.171875 -1.0625q-0.171875 -0.453125 -0.453125 -0.96875q-0.25 -0.421875 -0.25 -0.5625zm-5.15625 2.796875q0 1.03125 0.640625 1.65625q0.625 0.609375 1.796875 0.71875l0 -4.53125q-1.1875 0.03125 -1.8125 0.59375q-0.625 0.5625 -0.625 1.5625z" fill-rule="nonzero"/><path fill="#000000" fill-opacity="0.0" d="m46.112682 326.1994l0 -14.9947815l43.49606 0l0 -29.0997" fill-rule="evenodd"/><path stroke="#666666" stroke-width="2.0" stroke-linejoin="round" stroke-linecap="butt" d="m46.112682 319.34525l0 -8.1405945l43.496067 0l0 -22.245544" fill-rule="evenodd"/><path fill="#666666" stroke="#666666" stroke-width="2.0" stroke-linecap="butt" d="m46.112682 319.34525l-2.2491684 -2.249176l2.2491684 6.179535l2.2491646 -6.179535z" fill-rule="evenodd"/><path fill="#666666" stroke="#666666" stroke-width="2.0" stroke-linecap="butt" d="m89.60875 288.9591l2.2491684 2.2491455l-2.2491684 -6.179535l-2.2491684 6.179535z" fill-rule="evenodd"/><path fill="#000000" fill-opacity="0.0" d="m132.95258 326.1994l0 -14.9947815l-43.338577 0l0 -29.0997" fill-rule="evenodd"/><path stroke="#666666" stroke-width="2.0" stroke-linejoin="round" stroke-linecap="butt" d="m132.95258 319.34525l0 -8.1405945l-43.338577 0l0 -22.245544" fill-rule="evenodd"/><path fill="#666666" stroke="#666666" stroke-width="2.0" stroke-linecap="butt" d="m132.95258 319.34525l-2.2491608 -2.249176l2.2491608 6.179535l2.249176 -6.179535z" fill-rule="evenodd"/><path fill="#666666" stroke="#666666" stroke-width="2.0" stroke-linecap="butt" d="m89.614 288.9591l2.2491684 2.2491455l-2.2491684 -6.179535l-2.2491684 6.179535z" fill-rule="evenodd"/><path fill="#000000" fill-opacity="0.0" d="m89.53263 326.1994l0 -22.048553l0.09449005 0l0 -22.045929" fill-rule="evenodd"/><path stroke="#666666" stroke-width="2.0" stroke-linejoin="round" stroke-linecap="butt" d="m89.53263 319.34525l0 -15.194397l0.09449005 0l0 -15.191742" fill-rule="evenodd"/><path fill="#666666" stroke="#666666" stroke-width="2.0" stroke-linecap="butt" d="m89.53263 319.34525l-2.2491608 -2.249176l2.2491608 6.179535l2.2491684 -6.179535z" fill-rule="evenodd"/><path fill="#666666" stroke="#666666" stroke-width="2.0" stroke-linecap="butt" d="m89.62712 288.9591l2.2491684 2.2491455l-2.2491684 -6.179535l-2.2491684 6.179535z" fill-rule="evenodd"/><path fill="#000000" fill-opacity="0.0" d="m235.09258 326.1994l0.5354309 -44.094482" fill-rule="evenodd"/><path stroke="#666666" stroke-width="2.0" stroke-linejoin="round" stroke-linecap="butt" d="m235.17581 319.34573l0.36897278 -30.387146" fill-rule="evenodd"/><path fill="#666666" stroke="#666666" stroke-width="2.0" stroke-linecap="butt" d="m235.17581 319.34573l-2.221695 -2.2763062l2.1739655 6.2063904l2.3240356 -6.151764z" fill-rule="evenodd"/><path fill="#666666" stroke="#666666" stroke-width="2.0" stroke-linecap="butt" d="m235.54478 288.9586l2.221695 2.2763062l-2.1739655 -6.2063904l-2.3240356 6.1517944z" fill-rule="evenodd"/><path fill="#000000" fill-opacity="0.0" d="m361.84732 326.1994l0 -14.9947815l19.77951 0l0 -29.0997" fill-rule="evenodd"/><path stroke="#666666" stroke-width="2.0" stroke-linejoin="round" stroke-linecap="butt" d="m361.84732 319.34525l0 -8.1405945l19.77951 0l0 -22.245544" fill-rule="evenodd"/><path fill="#666666" stroke="#666666" stroke-width="2.0" stroke-linecap="butt" d="m361.84732 319.34525l-2.249176 -2.249176l2.249176 6.179535l2.249176 -6.179535z" fill-rule="evenodd"/><path fill="#666666" stroke="#666666" stroke-width="2.0" stroke-linecap="butt" d="m381.62683 288.9591l2.249176 2.2491455l-2.249176 -6.179535l-2.2491455 6.179535z" fill-rule="evenodd"/><path fill="#000000" fill-opacity="0.0" d="m405.26855 326.1994l0 -14.9947815l-23.653534 0l0 -29.0997" fill-rule="evenodd"/><path stroke="#666666" stroke-width="2.0" stroke-linejoin="round" stroke-linecap="butt" d="m405.2686 319.34525l0 -8.1405945l-23.653564 0l0 -22.245544" fill-rule="evenodd"/><path fill="#666666" stroke="#666666" stroke-width="2.0" stroke-linecap="butt" d="m405.2686 319.34525l-2.249176 -2.249176l2.249176 6.179535l2.2491455 -6.179535z" fill-rule="evenodd"/><path fill="#666666" stroke="#666666" stroke-width="2.0" stroke-linecap="butt" d="m381.61502 288.9591l2.249176 2.2491455l-2.249176 -6.179535l-2.2491455 6.179535z" fill-rule="evenodd"/><path fill="#000000" fill-opacity="0.0" d="m235.63255 29.267717l133.32283 0l0 36.283463l-133.32283 0z" fill-rule="evenodd"/><path fill="#999999" d="m245.69505 51.067715l0 -9.546875l1.265625 0l0 3.921875l4.953125 0l0 -3.921875l1.265625 0l0 9.546875l-1.265625 0l0 -4.5l-4.953125 0l0 4.5l-1.265625 0zm12.015762 0l0 -8.421875l-3.1406097 0l0 -1.125l7.5624847 0l0 1.125l-3.15625 0l0 8.421875l-1.265625 0zm8.141357 0l0 -8.421875l-3.140625 0l0 -1.125l7.5625 0l0 1.125l-3.15625 0l0 8.421875l-1.265625 0zm5.7194824 0l0 -9.546875l3.59375 0q0.953125 0 1.453125 0.09375q0.703125 0.125 1.171875 0.453125q0.484375 0.328125 0.765625 0.921875q0.296875 0.59375 0.296875 1.296875q0 1.21875 -0.78125 2.0625q-0.765625 0.84375 -2.796875 0.84375l-2.4375 0l0 3.875l-1.265625 0zm1.265625 -5.0l2.453125 0q1.234375 0 1.75 -0.453125q0.515625 -0.46875 0.515625 -1.28125q0 -0.609375 -0.3125 -1.03125q-0.296875 -0.421875 -0.796875 -0.5625q-0.3125 -0.09375 -1.171875 -0.09375l-2.4375 0l0 3.421875zm10.054993 5.15625l2.765625 -9.859375l0.9375 0l-2.765625 9.859375l-0.9375 0zm10.093475 -0.15625l-2.53125 -9.546875l1.296875 0l1.453125 6.265625q0.234375 0.984375 0.40625 1.953125q0.359375 -1.53125 0.421875 -1.765625l1.828125 -6.453125l1.515625 0l1.375 4.828125q0.515625 1.796875 0.734375 3.390625q0.1875 -0.90625 0.484375 -2.078125l1.484375 -6.140625l1.28125 0l-2.625 9.546875l-1.21875 0l-2.0 -7.265625q-0.265625 -0.921875 -0.3125 -1.125q-0.140625 0.65625 -0.28125 1.125l-2.015625 7.265625l-1.296875 0zm15.260712 -2.21875l1.203125 0.140625q-0.28125 1.0625 -1.0625 1.65625q-0.765625 0.578125 -1.96875 0.578125q-1.515625 0 -2.40625 -0.9375q-0.890625 -0.9375 -0.890625 -2.609375q0 -1.75 0.890625 -2.703125q0.90625 -0.96875 2.34375 -0.96875q1.390625 0 2.265625 0.9375q0.875 0.9375 0.875 2.65625q0 0.109375 0 0.3125l-5.15625 0q0.0625 1.140625 0.640625 1.75q0.578125 0.59375 1.4375 0.59375q0.65625 0 1.109375 -0.328125q0.453125 -0.34375 0.71875 -1.078125zm-3.84375 -1.90625l3.859375 0q-0.078125 -0.859375 -0.4375 -1.296875q-0.5625 -0.6875 -1.453125 -0.6875q-0.8125 0 -1.359375 0.546875q-0.546875 0.53125 -0.609375 1.4375zm7.5999756 4.125l-1.078125 0l0 -9.546875l1.171875 0l0 3.40625q0.734375 -0.921875 1.890625 -0.921875q0.640625 0 1.203125 0.265625q0.578125 0.25 0.9375 0.71875q0.375 0.453125 0.578125 1.109375q0.203125 0.65625 0.203125 1.40625q0 1.78125 -0.875 2.75q-0.875 0.96875 -2.109375 0.96875q-1.21875 0 -1.921875 -1.015625l0 0.859375zm0 -3.5q0 1.234375 0.328125 1.78125q0.5625 0.90625 1.5 0.90625q0.765625 0 1.328125 -0.65625q0.5625 -0.671875 0.5625 -2.0q0 -1.34375 -0.546875 -1.984375q-0.53125 -0.65625 -1.296875 -0.65625q-0.765625 0 -1.328125 0.671875q-0.546875 0.671875 -0.546875 1.9375zm6.0531006 0.4375l1.203125 -0.109375q0.078125 0.71875 0.390625 1.1875q0.3125 0.453125 0.953125 0.734375q0.65625 0.28125 1.46875 0.28125q0.71875 0 1.265625 -0.21875q0.5625 -0.21875 0.828125 -0.578125q0.265625 -0.375 0.265625 -0.828125q0 -0.453125 -0.265625 -0.78125q-0.25 -0.328125 -0.84375 -0.5625q-0.390625 -0.15625 -1.703125 -0.46875q-1.3125 -0.3125 -1.84375 -0.59375q-0.671875 -0.359375 -1.015625 -0.890625q-0.328125 -0.53125 -0.328125 -1.1875q0 -0.71875 0.40625 -1.34375q0.40625 -0.625 1.1875 -0.953125q0.796875 -0.328125 1.765625 -0.328125q1.046875 0 1.859375 0.34375q0.8125 0.34375 1.25 1.015625q0.4375 0.65625 0.46875 1.484375l-1.203125 0.09375q-0.109375 -0.90625 -0.671875 -1.359375q-0.5625 -0.46875 -1.65625 -0.46875q-1.140625 0 -1.671875 0.421875q-0.515625 0.421875 -0.515625 1.015625q0 0.515625 0.359375 0.84375q0.375 0.328125 1.90625 0.6875q1.546875 0.34375 2.109375 0.59375q0.84375 0.390625 1.234375 0.984375q0.390625 0.578125 0.390625 1.359375q0 0.75 -0.4375 1.4375q-0.421875 0.671875 -1.25 1.046875q-0.8125 0.359375 -1.828125 0.359375q-1.296875 0 -2.171875 -0.375q-0.875 -0.375 -1.375 -1.125q-0.5 -0.765625 -0.53125 -1.71875zm8.73349 -0.390625q0 -1.921875 1.078125 -2.84375q0.890625 -0.765625 2.171875 -0.765625q1.421875 0 2.328125 0.9375q0.90625 0.921875 0.90625 2.578125q0 1.328125 -0.40625 2.09375q-0.390625 0.765625 -1.15625 1.1875q-0.765625 0.421875 -1.671875 0.421875q-1.453125 0 -2.359375 -0.921875q-0.890625 -0.9375 -0.890625 -2.6875zm1.203125 0q0 1.328125 0.578125 1.984375q0.59375 0.65625 1.46875 0.65625q0.875 0 1.453125 -0.65625q0.578125 -0.671875 0.578125 -2.03125q0 -1.28125 -0.59375 -1.9375q-0.578125 -0.65625 -1.4375 -0.65625q-0.875 0 -1.46875 0.65625q-0.578125 0.65625 -0.578125 1.984375zm11.162476 0.921875l1.15625 0.15625q-0.1875 1.1875 -0.96875 1.859375q-0.78125 0.671875 -1.921875 0.671875q-1.40625 0 -2.28125 -0.921875q-0.859375 -0.9375 -0.859375 -2.65625q0 -1.125 0.375 -1.96875q0.375 -0.84375 1.125 -1.25q0.765625 -0.421875 1.65625 -0.421875q1.125 0 1.84375 0.578125q0.71875 0.5625 0.921875 1.609375l-1.140625 0.171875q-0.171875 -0.703125 -0.59375 -1.046875q-0.40625 -0.359375 -0.984375 -0.359375q-0.890625 0 -1.453125 0.640625q-0.546875 0.640625 -0.546875 2.0q0 1.40625 0.53125 2.03125q0.546875 0.625 1.40625 0.625q0.6875 0 1.140625 -0.421875q0.46875 -0.421875 0.59375 -1.296875zm2.1640625 2.53125l0 -9.546875l1.171875 0l0 5.453125l2.765625 -2.8125l1.515625 0l-2.640625 2.5625l2.90625 4.34375l-1.4375 0l-2.28125 -3.53125l-0.828125 0.796875l0 2.734375l-1.171875 0zm11.3828125 -2.21875l1.203125 0.140625q-0.28125 1.0625 -1.0625 1.65625q-0.765625 0.578125 -1.96875 0.578125q-1.515625 0 -2.40625 -0.9375q-0.890625 -0.9375 -0.890625 -2.609375q0 -1.75 0.890625 -2.703125q0.90625 -0.96875 2.34375 -0.96875q1.390625 0 2.265625 0.9375q0.875 0.9375 0.875 2.65625q0 0.109375 0 0.3125l-5.15625 0q0.0625 1.140625 0.640625 1.75q0.578125 0.59375 1.4375 0.59375q0.65625 0 1.109375 -0.328125q0.453125 -0.34375 0.71875 -1.078125zm-3.84375 -1.90625l3.859375 0q-0.078125 -0.859375 -0.4375 -1.296875q-0.5625 -0.6875 -1.453125 -0.6875q-0.8125 0 -1.359375 0.546875q-0.546875 0.53125 -0.609375 1.4375zm9.084351 3.078125l0.171875 1.03125q-0.5 0.109375 -0.890625 0.109375q-0.640625 0 -1.0 -0.203125q-0.34375 -0.203125 -0.484375 -0.53125q-0.140625 -0.328125 -0.140625 -1.390625l0 -3.96875l-0.859375 0l0 -0.90625l0.859375 0l0 -1.71875l1.171875 -0.703125l0 2.421875l1.171875 0l0 0.90625l-1.171875 0l0 4.046875q0 0.5 0.046875 0.640625q0.0625 0.140625 0.203125 0.234375q0.140625 0.078125 0.40625 0.078125q0.203125 0 0.515625 -0.046875z" fill-rule="nonzero"/><path fill="#000000" fill-opacity="0.0" d="m233.93176 166.70604l133.32285 0l0 36.283463l-133.32285 0z" fill-rule="evenodd"/><path fill="#999999" d="m243.58801 189.08417l1.140625 0.15625q0.078125 0.53125 0.40625 0.78125q0.4375 0.3125 1.1875 0.3125q0.8125 0 1.25 -0.328125q0.453125 -0.3125 0.609375 -0.90625q0.09375 -0.359375 0.078125 -1.5q-0.765625 0.90625 -1.90625 0.90625q-1.4375 0 -2.21875 -1.03125q-0.78125 -1.03125 -0.78125 -2.46875q0 -0.984375 0.359375 -1.8125q0.359375 -0.84375 1.03125 -1.296875q0.6875 -0.453125 1.609375 -0.453125q1.21875 0 2.015625 0.984375l0 -0.828125l1.078125 0l0 5.96875q0 1.609375 -0.328125 2.28125q-0.328125 0.6875 -1.046875 1.078125q-0.703125 0.390625 -1.75 0.390625q-1.234375 0 -2.0 -0.5625q-0.75 -0.5625 -0.734375 -1.671875zm0.984375 -4.15625q0 1.359375 0.53125 1.984375q0.546875 0.625 1.359375 0.625q0.796875 0 1.34375 -0.625q0.546875 -0.625 0.546875 -1.953125q0 -1.265625 -0.5625 -1.90625q-0.5625 -0.640625 -1.359375 -0.640625q-0.765625 0 -1.3125 0.640625q-0.546875 0.625 -0.546875 1.875zm6.8187256 3.578125l0 -9.546875l4.234375 0q1.265625 0 1.921875 0.265625q0.671875 0.25 1.0625 0.90625q0.40625 0.65625 0.40625 1.4375q0 1.015625 -0.65625 1.71875q-0.65625 0.6875 -2.03125 0.875q0.5 0.25 0.765625 0.484375q0.546875 0.5 1.046875 1.265625l1.65625 2.59375l-1.578125 0l-1.265625 -1.984375q-0.5625 -0.859375 -0.921875 -1.3125q-0.34375 -0.453125 -0.640625 -0.640625q-0.28125 -0.1875 -0.5625 -0.25q-0.21875 -0.046875 -0.703125 -0.046875l-1.46875 0l0 4.234375l-1.265625 0zm1.265625 -5.328125l2.71875 0q0.859375 0 1.34375 -0.171875q0.484375 -0.1875 0.734375 -0.578125q0.265625 -0.390625 0.265625 -0.859375q0 -0.671875 -0.5 -1.109375q-0.484375 -0.4375 -1.546875 -0.4375l-3.015625 0l0 3.15625zm8.343903 5.328125l0 -9.546875l3.59375 0q0.953125 0 1.453125 0.09375q0.703125 0.125 1.171875 0.453125q0.484375 0.328125 0.765625 0.921875q0.296875 0.59375 0.296875 1.296875q0 1.21875 -0.78125 2.0625q-0.765625 0.84375 -2.796875 0.84375l-2.4375 0l0 3.875l-1.265625 0zm1.265625 -5.0l2.453125 0q1.234375 0 1.75 -0.453125q0.515625 -0.46875 0.515625 -1.28125q0 -0.609375 -0.3125 -1.03125q-0.296875 -0.421875 -0.796875 -0.5625q-0.3125 -0.09375 -1.171875 -0.09375l-2.4375 0l0 3.421875zm14.42099 1.65625l1.265625 0.3125q-0.390625 1.5625 -1.421875 2.375q-1.03125 0.8125 -2.53125 0.8125q-1.53125 0 -2.5 -0.625q-0.96875 -0.625 -1.484375 -1.8125q-0.5 -1.1875 -0.5 -2.5625q0 -1.484375 0.5625 -2.59375q0.578125 -1.109375 1.625 -1.6875q1.0625 -0.578125 2.328125 -0.578125q1.421875 0 2.390625 0.734375q0.984375 0.71875 1.375 2.046875l-1.25 0.296875q-0.328125 -1.046875 -0.96875 -1.515625q-0.625 -0.484375 -1.578125 -0.484375q-1.09375 0 -1.84375 0.53125q-0.734375 0.53125 -1.03125 1.421875q-0.296875 0.875 -0.296875 1.828125q0 1.21875 0.34375 2.125q0.359375 0.90625 1.109375 1.359375q0.75 0.4375 1.625 0.4375q1.0625 0 1.796875 -0.609375q0.734375 -0.609375 0.984375 -1.8125z" fill-rule="nonzero"/></g></svg>